<?xml version="1.0" encoding="utf-8"?>
<!-- Generator: Adobe Illustrator 16.0.0, SVG Export Plug-In . SVG Version: 6.00 Build 0)  -->
<!DOCTYPE svg PUBLIC "-//W3C//DTD SVG 1.1//EN" "http://www.w3.org/Graphics/SVG/1.1/DTD/svg11.dtd" [
	<!ENTITY ns_extend "http://ns.adobe.com/Extensibility/1.0/">
	<!ENTITY ns_ai "http://ns.adobe.com/AdobeIllustrator/10.0/">
	<!ENTITY ns_graphs "http://ns.adobe.com/Graphs/1.0/">
	<!ENTITY ns_vars "http://ns.adobe.com/Variables/1.0/">
	<!ENTITY ns_imrep "http://ns.adobe.com/ImageReplacement/1.0/">
	<!ENTITY ns_sfw "http://ns.adobe.com/SaveForWeb/1.0/">
	<!ENTITY ns_custom "http://ns.adobe.com/GenericCustomNamespace/1.0/">
	<!ENTITY ns_adobe_xpath "http://ns.adobe.com/XPath/1.0/">
]>
<svg version="1.1" id="Layer_1" xmlns:x="&ns_extend;" xmlns:i="&ns_ai;" xmlns:graph="&ns_graphs;"
	 xmlns="http://www.w3.org/2000/svg" xmlns:xlink="http://www.w3.org/1999/xlink" x="0px" y="0px" width="258px" height="81px"
	 viewBox="0 0 258 81" enable-background="new 0 0 258 81" xml:space="preserve">
<metadata>
	<sfw  xmlns="&ns_sfw;">
		<slices></slices>
		<sliceSourceBounds  width="230.734" height="52.797" y="146.102" x="81.633" bottomLeftOrigin="true"></sliceSourceBounds>
	</sfw>
</metadata>
<g>
	<path fill="#3B5B84" d="M26.857,60.086c-2.375,0-4.705-0.399-6.991-1.2c-2.285-0.832-4.363-2.094-6.233-3.785l4.052-4.854
		c1.424,1.158,2.879,2.078,4.363,2.763c1.514,0.682,3.161,1.022,4.943,1.022c1.425,0,2.523-0.253,3.294-0.757
		c0.802-0.535,1.203-1.261,1.203-2.181v-0.09c0-0.445-0.089-0.831-0.267-1.157c-0.15-0.357-0.461-0.684-0.936-0.98
		c-0.445-0.297-1.082-0.593-1.914-0.89c-0.801-0.298-1.855-0.609-3.162-0.937c-1.572-0.386-2.998-0.815-4.274-1.291
		c-1.276-0.475-2.36-1.054-3.25-1.735c-0.891-0.712-1.589-1.588-2.094-2.627c-0.474-1.04-0.712-2.331-0.712-3.875v-0.089
		c0-1.425,0.268-2.701,0.801-3.83c0.535-1.156,1.277-2.152,2.227-2.983c0.98-0.83,2.138-1.469,3.473-1.915
		c1.336-0.444,2.805-0.667,4.408-0.667c2.286,0,4.378,0.341,6.278,1.024c1.93,0.683,3.696,1.663,5.298,2.939l-3.561,5.165
		c-1.396-0.95-2.76-1.693-4.096-2.227c-1.336-0.564-2.671-0.845-4.008-0.845c-1.336,0-2.345,0.267-3.028,0.8
		c-0.653,0.505-0.979,1.144-0.979,1.915v0.089c0,0.505,0.089,0.951,0.268,1.337c0.208,0.356,0.563,0.683,1.068,0.979
		c0.504,0.297,1.187,0.579,2.048,0.846c0.891,0.267,2.004,0.579,3.34,0.934c1.572,0.416,2.967,0.892,4.185,1.426
		c1.246,0.505,2.285,1.127,3.117,1.87c0.861,0.712,1.498,1.559,1.914,2.537c0.445,0.98,0.668,2.153,0.668,3.518v0.091
		c0,1.543-0.281,2.924-0.846,4.14c-0.564,1.187-1.35,2.197-2.36,3.028c-1.009,0.801-2.211,1.425-3.606,1.87
		C30.092,59.878,28.548,60.086,26.857,60.086"/>
	<path fill="#3B5B84" d="M41.093,27.138h6.767V39.16c0.386-0.504,0.802-0.979,1.247-1.425c0.475-0.474,0.995-0.89,1.559-1.246
		c0.564-0.357,1.188-0.639,1.87-0.846c0.683-0.208,1.455-0.312,2.316-0.312c2.582,0,4.571,0.786,5.966,2.359
		c1.425,1.574,2.137,3.741,2.137,6.502v15.45h-6.768V46.329c0-1.604-0.357-2.807-1.069-3.608c-0.712-0.831-1.721-1.246-3.027-1.246
		c-1.306,0-2.345,0.415-3.117,1.246c-0.742,0.802-1.114,2.005-1.114,3.608v13.312h-6.767V27.138z"/>
	<path fill="#3B5B84" d="M78.526,60.177c-1.841,0-3.547-0.312-5.121-0.937c-1.573-0.653-2.938-1.528-4.097-2.626
		c-1.127-1.128-2.018-2.435-2.671-3.918c-0.652-1.514-0.98-3.132-0.98-4.854v-0.089c0-1.722,0.328-3.324,0.98-4.809
		c0.653-1.513,1.559-2.835,2.716-3.963c1.157-1.127,2.523-2.018,4.097-2.671c1.573-0.654,3.294-0.979,5.165-0.979
		c1.841,0,3.546,0.325,5.121,0.979c1.572,0.623,2.923,1.499,4.051,2.626c1.158,1.099,2.063,2.405,2.716,3.919
		c0.653,1.484,0.98,3.087,0.98,4.808v0.09c0,1.722-0.327,3.339-0.98,4.854c-0.653,1.482-1.558,2.791-2.716,3.918
		c-1.158,1.128-2.524,2.018-4.096,2.671C82.116,59.85,80.396,60.177,78.526,60.177 M78.615,54.343c0.98,0,1.841-0.163,2.582-0.489
		c0.772-0.356,1.425-0.831,1.96-1.425c0.534-0.594,0.934-1.275,1.201-2.05c0.298-0.801,0.445-1.646,0.445-2.537v-0.089
		c0-0.89-0.147-1.722-0.445-2.494c-0.296-0.8-0.726-1.498-1.291-2.092c-0.564-0.623-1.232-1.112-2.003-1.47
		c-0.772-0.356-1.619-0.534-2.538-0.534c-0.98,0-1.855,0.178-2.628,0.534c-0.741,0.328-1.379,0.788-1.914,1.381
		c-0.534,0.593-0.951,1.291-1.247,2.092c-0.267,0.772-0.4,1.604-0.4,2.493v0.09c0,0.892,0.148,1.737,0.445,2.538
		c0.296,0.772,0.727,1.47,1.291,2.093c0.563,0.594,1.217,1.068,1.959,1.426C76.804,54.165,77.665,54.343,78.615,54.343"/>
	<path fill="#3B5B84" d="M106.119,60.177c-1.781,0-3.443-0.299-4.989-0.892c-1.512-0.593-2.833-1.439-3.962-2.538
		c-1.098-1.097-1.959-2.389-2.582-3.873c-0.624-1.515-0.936-3.19-0.936-5.031v-0.09c0-1.691,0.283-3.294,0.847-4.81
		c0.593-1.512,1.41-2.834,2.449-3.962c1.038-1.127,2.271-2.018,3.695-2.671c1.456-0.654,3.057-0.979,4.809-0.979
		c1.988,0,3.709,0.356,5.164,1.069c1.455,0.711,2.658,1.675,3.607,2.894c0.979,1.186,1.691,2.567,2.137,4.14
		c0.475,1.544,0.713,3.162,0.713,4.853c0,0.269-0.016,0.549-0.045,0.847c0,0.297-0.014,0.608-0.045,0.935h-16.608
		c0.327,1.544,0.995,2.716,2.004,3.518c1.039,0.772,2.316,1.158,3.83,1.158c1.127,0,2.137-0.192,3.027-0.579
		c0.889-0.387,1.811-1.01,2.76-1.87l3.873,3.429c-1.127,1.395-2.492,2.493-4.096,3.296
		C110.172,59.789,108.285,60.177,106.119,60.177 M110.482,45.838c-0.207-1.514-0.742-2.729-1.604-3.65
		c-0.859-0.95-2.004-1.424-3.428-1.424c-1.426,0-2.584,0.46-3.473,1.38c-0.861,0.92-1.424,2.151-1.692,3.694H110.482z"/>
	<path fill="#3B5B84" d="M135.85,60.175c-2.285,0-4.408-0.416-6.367-1.244c-1.959-0.831-3.65-1.96-5.076-3.386
		c-1.426-1.455-2.537-3.161-3.34-5.12c-0.801-1.959-1.201-4.052-1.201-6.277v-0.089c0-2.229,0.4-4.305,1.201-6.234
		c0.803-1.959,1.914-3.667,3.34-5.121c1.426-1.484,3.133-2.641,5.119-3.473c1.99-0.86,4.186-1.291,6.592-1.291
		c1.453,0,2.775,0.119,3.961,0.356c1.217,0.238,2.316,0.564,3.295,0.98c0.98,0.416,1.887,0.92,2.719,1.514
		c0.828,0.594,1.602,1.246,2.314,1.959l-4.365,5.031c-1.215-1.098-2.463-1.959-3.738-2.582c-1.248-0.624-2.658-0.935-4.23-0.935
		c-1.307,0-2.523,0.251-3.652,0.756c-1.098,0.505-2.049,1.203-2.85,2.093c-0.801,0.891-1.424,1.93-1.869,3.117
		c-0.445,1.158-0.668,2.404-0.668,3.741v0.089c0,1.336,0.223,2.597,0.668,3.783c0.445,1.188,1.055,2.227,1.824,3.116
		c0.803,0.893,1.752,1.604,2.85,2.14c1.129,0.504,2.361,0.757,3.697,0.757c1.781,0,3.281-0.327,4.498-0.981
		c1.246-0.651,2.477-1.543,3.695-2.672l4.361,4.41c-0.801,0.86-1.633,1.632-2.492,2.315c-0.861,0.682-1.811,1.275-2.85,1.779
		c-1.01,0.477-2.123,0.831-3.34,1.069C138.729,60.041,137.363,60.175,135.85,60.175"/>
	<path fill="#3B5B84" d="M151.51,27.137h7.123v6.011h-7.123V27.137z M151.688,35.776h6.768v23.865h-6.768V35.776z"/>
	<path fill="#3B5B84" d="M171.756,60.041c-1.039,0-1.988-0.117-2.852-0.354c-0.83-0.208-1.557-0.594-2.18-1.159
		c-0.594-0.562-1.07-1.29-1.426-2.18c-0.326-0.921-0.49-2.078-0.49-3.475V41.564h-2.85v-5.789h2.85v-6.099h6.77v6.099h5.609v5.789
		h-5.609v10.197c0,1.544,0.727,2.313,2.182,2.313c1.186,0,2.301-0.28,3.338-0.846v5.433c-0.711,0.414-1.498,0.741-2.359,0.98
		C173.879,59.907,172.883,60.041,171.756,60.041"/>
	<path fill="#3B5B84" d="M187.193,66.898c-1.248,0-2.346-0.147-3.295-0.443c-0.949-0.297-1.857-0.7-2.717-1.203l2.271-4.898
		c0.445,0.268,0.92,0.489,1.426,0.667c0.533,0.179,1.021,0.269,1.469,0.269c0.592,0,1.053-0.119,1.381-0.357
		c0.355-0.208,0.682-0.607,0.979-1.201l-9.352-23.955h7.17l5.432,16.252l5.209-16.252h7.035l-9.172,24.444
		c-0.445,1.217-0.922,2.241-1.426,3.072c-0.504,0.861-1.066,1.558-1.691,2.093c-0.592,0.535-1.277,0.92-2.047,1.159
		C189.092,66.78,188.201,66.898,187.193,66.898"/>
	<path fill="#CD4A3D" d="M228.146,44.115c-7.607,0-13.795-6.188-13.795-13.792c0-7.603,6.188-13.79,13.795-13.79
		c7.604,0,13.789,6.187,13.789,13.79C241.936,37.928,235.75,44.115,228.146,44.115 M228.146,14.102
		c-8.945,0-16.229,7.276-16.229,16.221c0,8.947,7.283,16.224,16.229,16.224c8.943,0,16.221-7.277,16.221-16.224
		C244.367,21.377,237.09,14.102,228.146,14.102"/>
	<path fill="#CD4A3D" d="M228.146,19.837c-5.785,0-10.49,4.703-10.49,10.486c0,5.783,4.705,10.488,10.49,10.488
		c5.781,0,10.484-4.705,10.484-10.488C238.631,24.54,233.928,19.837,228.146,19.837"/>
</g>
</svg>
