<svg xmlns="http://www.w3.org/2000/svg" width="355" height="355" xmlns:v="https://vecta.io/nano"><path d="M189.973 213.478l-.666 1.9 4.184-1.044-3.518-.867m9.6-1.23l.168-1.863c-2.706-.562-3.083-.2-2.947 2.618l2.78-.755M187 224.13c-.145-.1-.305-.175-.474-.225-8.2-1.38-13.12-6.48-15.738-14.044-3.397-9.355-2.876-19.685 1.445-28.65 3.083-6.57 8.455-10.2 15.6-10.97a30.04 30.04 0 0 1 17.5 3.26c2.875 1.518 2.93 1.767 2.433 4.97q-.76 4.842-1.533 9.692c-.1.674-.3 1.333-.5 2.248l-1.84-.908a26.56 26.56 0 0 0-12.15-3.59c-5.46-.1-8.536 2.4-9.138 7.837a27.06 27.06 0 0 0 .386 8.166c.94 4.786 4.777 7.187 9.62 6.6a32.56 32.56 0 0 0 11.242-3.742l1.662-.9c.182.382.33.78.442 1.188l2.03 11.917a2.66 2.66 0 0 1-1.309 2.955 27.27 27.27 0 0 1-10.454 3.838c-.506.1-1.012.233-1.518.353zm-174.38-57.18l-.5-.1c-1.292 1.96-1.292 1.96-.337 3.228l.835-3.132m10.88 10.455l-.82 2 4.352-1.108-3.533-.883m8.48.072l1.742-3.02c-2.553-1-4.055-.233-3.284 2.682l1.8-1.148.3.2-.546 1.284c-1.044.78-.586 1.2.538 1.38l-1.148.884.3.5 1.6-.9-.883-1.35c-.12-.185-.273-.345-.4-.514m-29.8-20.332c.907-3.373 1.534-6.85 2.77-10.1 3.806-10.06 12.374-13.932 22.4-12.872a29.51 29.51 0 0 1 12.166 3.638 3.39 3.39 0 0 1 1.847 4.167c-.7 3.308-1.116 6.68-1.654 10.022-.112.674-.3 1.35-.506 2.28-.715-.345-1.276-.586-1.815-.875a27.34 27.34 0 0 0-11.459-3.581c-5.814-.362-9.178 2.28-9.876 8.038-.287 2.727-.13 5.482.465 8.16 1.02 4.778 4.98 7.387 9.893 6.343 3.678-.78 7.187-2.33 10.744-3.565.713-.297 1.4-.63 2.088-1l1.863 11.1c.7 4.3.73 4.432-3.2 6.255a29.67 29.67 0 0 1-20.33 2.072c-6.12-1.558-10.158-5.7-12.422-11.427a104.47 104.47 0 0 1-2.971-10.23zm263.34 59.692l-1.743 4.5.37.4a8.38 8.38 0 0 0 1.478-1.14c.3-.345.233-1 .522-1.34.987-1.164.36-1.774-.626-2.425m-4.86-4.987c3.718.008 6.416-2.94 6.44-7 .016-4.127-2.738-7.26-6.432-7.307-3.62-.048-6.352 3.083-6.368 7.315-.024 4.167 2.546 7 6.36 7m-2.834 12.278c-2.3-.956-4.8-1.606-6.9-2.907-9.756-6.12-11.852-20.283-4.5-29.38 8.7-10.768 24.772-8.432 30.112 4.376 4.063 9.748.595 20.974-8.1 25.808a38.71 38.71 0 0 1-5.709 2.1zm76.098-.002c-3.5-.7-6.97-1.413-9.925-3.638-2.36-1.682-4.332-3.847-5.8-6.352 1.887-.9 3.7-1.638 5.412-2.586 2.5-1.38 4.593-1.95 7.082.426a8.39 8.39 0 0 0 7.717 1.943 5.72 5.72 0 0 0 1.654-1.06c-.394-.586-.674-1.494-1.22-1.694-2.016-.755-4.16-1.172-6.183-1.9-3.164-1.14-6.56-2-9.363-3.742-7.387-4.633-6.7-14.615 1.052-18.677 7.5-3.927 19.753-1.927 25.632 4.184a21.64 21.64 0 0 1 1.349 1.726l-7.14 6.15c-.3.24-1.292 0-1.686-.337a13.05 13.05 0 0 0-7.661-3.517c-.517-.1-1.05-.08-1.558.064-.658.313-1.622.844-1.662 1.357a2.26 2.26 0 0 0 1.26 1.75c1.847.7 3.83 1.036 5.717 1.654 2.6.85 5.22 1.7 7.725 2.794 3.284 1.43 5.275 4.135 6.528 7.428v4.56c-1.165 3.734-3.284 6.625-7.138 7.917-1.694.57-3.428 1.036-5.14 1.55zm-36.117 0l-4.593-1.068c-4.8-1.43-8.35-4.465-11.186-8.9 2.024-.956 3.967-1.72 5.758-2.746 2.376-1.374 4.312-1.654 6.617.5 2.162 1.983 5.178 2.744 8.022 2.024.578-.128 1.413-.723 1.462-1.172-.08-.665-.478-1.25-1.068-1.566a38.2 38.2 0 0 0-4.312-1.429c-2.843-.867-5.774-1.526-8.52-2.634-3.38-1.373-6.24-3.533-7.42-7.227a10.9 10.9 0 0 1 6.087-13.241c7.3-3.348 19.175-2.03 25.14 4.393 1.2 1.285 1.14 2.015-.144 3.05q-2.66 2.144-5.147 4.5c-.835.78-1.365.722-2.184-.024a11.83 11.83 0 0 0-7.628-3.533c-1.22-.04-2.9-.417-3.236 1.27-.37 1.84 1.374 2.048 2.618 2.417 3.244.988 6.536 1.8 9.74 2.875a13.31 13.31 0 0 1 7.155 5.107c1.7 2.468 2.245 5.55 1.495 8.452s-2.723 5.334-5.406 6.668a53.59 53.59 0 0 1-6.584 2.289zM94.66 178.267c3.4-1.55 6.24-2.907 9.146-4.1.45-.185 1.317.25 1.8.634 2.44 1.935 5.034 3.42 8.263 3.356.406.058.82.024 1.212-.1.618-.33 1.526-.755 1.606-1.26.08-.482-.6-1.365-1.165-1.638-1.192-.47-2.412-.865-3.654-1.18-3.6-1.2-7.34-2.072-10.72-3.7-5.212-2.52-7.155-7.3-5.75-12.56a10.49 10.49 0 0 1 4.794-6.247c6.56-4.143 20.7-3.557 27.22 4.44.177.217.3.474.6.94l-7.122 6.175c-.265.2-1.2-.048-1.582-.377a13.56 13.56 0 0 0-7.492-3.517c-.114-.024-.23-.04-.345-.048-1.268.016-2.883-.25-3.2 1.365-.313 1.6 1.277 1.887 2.417 2.232 3.3 1 6.68 1.75 9.893 2.97a18.3 18.3 0 0 1 5.83 3.437 10.29 10.29 0 0 1-3.028 17.12c-8.672 3.453-17.055 2.955-24.53-3.228a43.03 43.03 0 0 1-4.192-4.705m36.527-.146l8.96-3.943c.434-.17 1.284.337 1.783.73 2.5 1.975 5.147 3.453 8.455 3.26a2.79 2.79 0 0 0 1.2-.153c.554-.33 1.268-.747 1.43-1.277.113-.36-.506-1.14-.988-1.437a10.01 10.01 0 0 0-2.433-.939l-9.572-2.8c-1.48-.54-2.877-1.284-4.152-2.208a10.43 10.43 0 0 1 .138-17.536 17.47 17.47 0 0 1 6.809-2.489c7.082-1 13.755.113 19.344 5.05.474.425.907.907 1.34 1.373a1.04 1.04 0 0 1-.1 1.758 234.9 234.9 0 0 0-5.9 5.212c-.78.715-1.34.626-2.072-.088-1.966-1.953-4.525-3.2-7.275-3.54-.225-.06-.457-.094-.7-.1-1.18.12-2.77-.136-3.035 1.4-.273 1.558 1.22 1.935 2.392 2.288 3.566 1.092 7.187 2.024 10.712 3.244 2.643.848 4.934 2.54 6.52 4.818 1.634 2.364 2.215 5.3 1.603 8.108s-2.36 5.237-4.83 6.707c-6.833 4.047-21.5 4.344-28.506-5.573-.36-.506-.65-1.06-1.14-1.863m-70.318-20.968a30.38 30.38 0 0 1 11.69-8.07c.17 1.462.362 2.65.433 3.854l.66 11c.1 1.277-.45 1.574-1.6 1.686-3 .28-6.022.667-9 1.108-1.686.25-2.385 1.245-2.337 3.06.128 5.02.024 10.045.1 15.064.032 1.542-.377 2.208-2.055 2.16-3.846-.1-7.7-.08-11.563-.024-1.486.024-1.9-.578-1.823-2l1.382-28.843c.032-.7.1-1.4.184-2.1.346-3.252.346-3.252 3.622-3.55l8.022-.747c1.333-.136 1.943.338 1.88 1.75-.072 1.8-.016 3.606-.016 5.4l.426.24m178.354 27.844l.755 15.16c.064 1.333-.94 1.413-1.9 1.5l-7.645.8c-3.2.6-3.4.98-3.372 4.192l.3 14.2c.057 1.694-.578 2.28-2.24 2.24-3.613-.1-7.243.008-10.864-.112-2.273-.08-2.4-.33-2.313-2.505q.7-15.478 1.42-30.963c.12-2.473.426-2.706 2.93-2.907 2.963-.225 5.942-.433 8.9-.827 1.5-.2 1.863.345 1.823 1.678-.056 1.863-.016 3.726-.016 6.046a32.22 32.22 0 0 1 12.238-8.5M90.94 170.332l.032 14.534c.024 1.622-.538 2.152-2.128 2.12-3.678-.1-7.355-.073-11.033 0-1.47.024-2.12-.4-2.04-1.992l1.357-29.2.064-1.75c.056-3.107.048-3.148 3.06-3.47 2.787-.305 5.58-.5 8.367-.787 1.4-.144 2.03.3 2.016 1.807l-.024 18.726h.33m-14.47-29.945a7.14 7.14 0 0 1 1.992-5.265c1.357-1.408 3.23-2.2 5.187-2.187a7.29 7.29 0 0 1 7.46 7.227 7.29 7.29 0 0 1-7.332 7.54 7.16 7.16 0 0 1-7.307-7.315"/></svg>