<svg xmlns="http://www.w3.org/2000/svg" width="356.645" height="355" stroke="rgba(112,112,112,0)" xmlns:v="https://vecta.io/nano"><path d="M228.963 154.66q5.712 6.614 11.4 13.228 10.3 11.92 20.63 23.83c.292.342.63.635 1.266 1.272v-3.978l-.247-6.748-.36-20.627c-.023-.652-.157-1.3-.195-1.94a2.99 2.99 0 0 0-2.961-3.122l-2.15-.318c1.04-1.116 11.3-1.214 12.593-.252-.112.122-.2.3-.337.342-3.3 1.092-3.3 1.084-3.32 4.9q-.135 19.132-.285 38.248a12.68 12.68 0 0 1-.06 1.418c-.12.88-.6 1.14-1.266.6a14.35 14.35 0 0 1-1.86-1.728q-14.107-15.964-28.185-31.974c-.855-.97-1.656-1.988-2.48-3-.158.1-.33.187-.5.277l.015 3.284q.292 11.1.622 22.2a152.44 152.44 0 0 0 .314 5.852c.2 2.8.922 3.626 3.464 4.042.494.082.982.188 1.476.277l-.045.562H223.64a3.64 3.64 0 0 1-.045-.4 4.36 4.36 0 0 1 .81-.375c2.743-.66 3.2-1.206 3.23-4.336l.045-24.564.27-15.1a11.21 11.21 0 0 1 .352-1.891zm61.887 0q5.937 6.865 11.873 13.72 10.2 11.787 20.4 23.558c.217.244.48.456 1.035.993l-.007-4.48-.225-5.318-.374-21.5c-.007-.65-.143-1.295-.18-1.938a3 3 0 0 0-2.961-3.127c-.714-.05-1.4-.3-1.987-.7 4.13-.578 8.26-.27 12.4-.44l.068.62a5.17 5.17 0 0 1-.915.416c-2.2.52-2.7 1.123-2.76 3.623-.045 1.84-.015 3.68-.03 5.513q-.135 17.064-.285 34.12c-.007.676-.143 1.35-.277 2.524a24.32 24.32 0 0 1-2.556-2.142q-12.246-13.7-24.437-27.475l-5.7-6.612c-.322-.375-.7-.684-1.372-1.327v3.34l.63 22.2c.067 2.182.172 4.373.352 6.555.195 2.4.907 3.184 3.1 3.616l1.814.333-.06.57h-12.864c-.015-.155-.037-.3-.053-.464.383-.122.757-.277 1.147-.366 2.174-.5 2.72-1.148 2.88-3.575.037-.538.03-1.067.037-1.6q.135-18.835.292-37.68a24.44 24.44 0 0 1 .36-2.956zm-188.616 45.155c8.9-.008 14.3-4.2 16.424-11.34a31.5 31.5 0 0 0 1-13.855c-1.237-8.173-4.715-14.54-12.45-17.054-7.466-2.426-17.406.822-20.1 11.486-1.82 6.67-1.263 13.763 1.574 20.066 3.126 6.92 8.388 10.517 13.553 10.7m4.722-45.155a64.19 64.19 0 0 1 7.578 2.71c8.2 4.1 11.83 13.074 11 22.476-.764 8.6-4.475 15.337-11.58 19.668-8.1 4.95-20.337 3.492-26.9-3.46a25.08 25.08 0 0 1-6.3-14.148c-1.686-12.186 6.14-25.113 18.08-26.985.2-.06.412-.148.6-.26zm-77.65-.003l8.05 1.376c1.432.17 2.046.594 1.86 2.3-.248 2.223-.248 4.486-.375 6.724a13.62 13.62 0 0 1-.24 1.433l-.45.024a13.2 13.2 0 0 1-.427-1.57 7.02 7.02 0 0 0-4.063-5.61 22.37 22.37 0 0 0-18.942-.586c-5.525 2.352-8.058 7.383-8.875 13.5a26.1 26.1 0 0 0 3.883 18.4 18.74 18.74 0 0 0 14.377 8.726 33.98 33.98 0 0 0 7.467-.505c1.6-.2 2.406-1.294 2.36-3.207-.1-3.85-.015-7.7-.038-11.56-.022-3.288-.592-3.972-3.613-4.517a9.06 9.06 0 0 1-.952-.285c.8-.928 12.376-1 13.44-.13-.113.114-.218.3-.345.326-3.246.382-3.3 2.076-3.3 4.8l-.03 11.73c-.03 3.093-.375 3.77-3.088 4.607-9.97 3.085-19.55 2.637-28.207-4.306-3.62-2.9-5.5-7.1-6.656-11.722L.5 182.044v-7.464l.757-3.06c1.934-7.53 6.237-12.707 13.065-15.263 1.882-.7 3.876-1.067 5.817-1.588zm164.613 9.672l-.562-.008-5.06 16.767h11.162l-5.54-16.758m1.244-9.675q7.274 20.027 14.565 40.045c1.192 3.253 3.02 5.8 6.62 5.967.12.008.24.2.368.3-1.094.97-9.2.978-10.974.2a17 17 0 0 0-.382-3.3l-4.378-12.47a2.27 2.27 0 0 0-2.414-1.867c-3.163.066-6.327.057-9.5.008a1.99 1.99 0 0 0-2.151 1.687l-3.186 10.107c-1.184 3.912-1.05 4.206 2.242 5.584-.75.823-10.87 1.035-12.548.14.442-.2.742-.465 1.042-.473 2.88-.073 4.467-1.94 5.4-4.62l4.3-12.5q4.7-13.682 9.378-27.346c.172-.5.4-.97.607-1.46zm-63.17.902h14.55l.1.465c-.33.158-.674.286-1.027.383-2.28.44-2.586.97-1.754 3.36l5.727 16.3q2.653 7.558 5.307 15.132l.952 2.4 1.687-4.264q5.082-14.174 10.14-28.364a15 15 0 0 0 .458-1.524c.532-2.17.15-2.764-1.9-3.033a8.44 8.44 0 0 1-.967-.228c.847-1.06 10.5-1.207 11.8-.237-.12.122-.232.335-.345.335-2.953.073-4.235 2.258-5.24 4.843q-5.847 14.993-11.724 29.962c-1.3 3.27-2.676 6.5-4.07 9.72a6.95 6.95 0 0 1-1.11 1.427c-.435-.48-1.05-.872-1.266-1.443l-7.8-20.57-7-18.8c-1.07-3.04-2.743-4.9-5.83-5.022a2.29 2.29 0 0 1-.7-.294l.022-.522m209.437-.014h13.327c-.494.482-.622.7-.787.75-3 .866-3.125.857-3.23 4.083q-.27 8.635-.255 17.28l.285 18.34c.075 3.446.607 4.034 3.785 4.532a1.69 1.69 0 0 1 1.14.67c-4.6.588-9.212.066-14.084.466.307-.67.367-.93.442-.94 2.54-.212 3.178-2.082 3.3-4.426.045-.9.135-1.78.135-2.662q.022-15.874.015-31.732c0-4.156-.022-4.156-3.62-5.692-.12-.057-.18-.27-.442-.67M56.814 201.004a3.54 3.54 0 0 1 .712-.408c2.37-.7 2.878-1.224 2.908-3.9q.214-17.717.292-35.424c.007-3.486-.292-3.714-3.845-5.224.742-.833 10.884-1.07 12.863-.115-.47.218-.953.403-1.447.555a2.9 2.9 0 0 0-2.429 2.914c-.075.767-.12 1.535-.12 2.3q-.012 15.67.007 31.35c.008 1.355.18 2.718.3 4.073.195 2.27.667 2.807 2.773 3.232l2.3.458c-1.222 1.036-13 1.1-14.325.18"/></svg>