<svg xmlns="http://www.w3.org/2000/svg" width="355.205" height="355" fill-rule="evenodd" xmlns:v="https://vecta.io/nano"><path d="M66.398 137.107c-.087.04-.182.06-.278.056a.35.35 0 0 0-.23.058c-.044.04-.103.06-.162.057-.07 0-.132.027-.132.057s-.046.058-.107.058-.107.02-.107.047-.067.086-.147.13a1.22 1.22 0 0 0-.254.195 1.28 1.28 0 0 0-.182.272c-.04.086-.095.158-.12.158s-.046.05-.046.115-.023.115-.052.115-.053.05-.053.114-.024.115-.053.115-.054.074-.054.17-.02.17-.048.17c-.058 0-.1.372-.146 1.03a2.64 2.64 0 0 1-.08.6 18.28 18.28 0 0 0 .118 3.147c.037.084.053.175.046.266a.4.4 0 0 0 .054.249c.04.05.058.1.053.174 0 .075.025.14.054.14s.053.052.053.116.02.114.045.114.08.074.122.16c.087.183.315.412.4.412.037 0 .064.02.064.046 0 .056.263.183.38.183.05-.002.096.02.127.057a2.18 2.18 0 0 0 .695.058 2.16 2.16 0 0 0 .695-.058c.034-.038.083-.06.134-.058.225 0 .748-.42.748-.6a.1.1 0 0 1 .108-.086h.105v.3c0 .23.022.32.086.344a3.86 3.86 0 0 0 .636.035c.4 0 .566-.022.6-.078a16 16 0 0 0 .046-2.275l-.015-2.2-2.643-.03v1.42l.086.035a1.63 1.63 0 0 0 .38.034h.293l-.03.475c-.037.6-.087.9-.147.9-.027 0-.05.04-.05.093 0 .178-.154.263-.48.263-.4 0-.5-.1-.62-.613-.065-.274-.085-4.274-.02-4.343a.46.46 0 0 0 .053-.244c0-.1.023-.2.053-.2s.053-.035.053-.08c0-.24.7-.374.863-.166a1.21 1.21 0 0 1 .224.732 2.23 2.23 0 0 0 .06.444l.04.1h.88c.695 0 .9-.017.957-.083l.076-.082-.058-.418a3.02 3.02 0 0 0-.107-.518.58.58 0 0 1-.05-.212.19.19 0 0 0-.053-.146c-.037-.04-.057-.092-.053-.146 0-.063-.02-.1-.046-.1s-.08-.074-.12-.16c-.093-.2-.416-.527-.512-.527-.038 0-.07-.02-.07-.046 0-.05-.257-.182-.36-.182-.035.002-.066-.023-.07-.058s-.093-.058-.2-.058-.226-.024-.243-.056a3.27 3.27 0 0 0-1.2 0m8.633-.02c-.02.023-.035 1.977-.035 4.348v4.3H77.1c.725.048 1.454.024 2.174-.072a3 3 0 0 0 .058-.887l-.012-.828q-.623-.033-1.247-.044l-1.235-.032v-1.715l2.2-.03v-1.714H76.86l-.027-.133a6.4 6.4 0 0 1-.013-.754l.015-.62 2.4-.03v-1.76l-.08-.037c-.1-.05-4.093-.05-4.135 0m9.792-.016c-.04.028-.053 1.355-.045 4.34l.014 4.3h1.832l.012-2.657.066-2.655c.032 0 .053.1.053.2a.4.4 0 0 0 .052.241c.04.06.06.135.052.208s.01.145.052.206a.4.4 0 0 1 .052.241c0 .112.022.205.047.205s.063.1.08.226c.08.533.1.6.133.6s.057.095.074.208l.063.415c.007.086.034.168.08.24.036.06.052.13.046.2s.01.147.053.208a.31.31 0 0 1 .052.207c-.006.073.012.146.052.208a.4.4 0 0 1 .052.24c0 .112.02.205.046.205s.063.095.08.208l.064.415c.018.115.053.208.08.208s.046.052.046.118v.118l1.086-.015 1.086-.014.03-8.62h-1.885v2.612a25.16 25.16 0 0 1-.052 2.606c-.028 0-.052-.068-.052-.145a.28.28 0 0 0-.052-.182.39.39 0 0 1-.052-.236c.008-.082-.008-.163-.046-.235a.52.52 0 0 1-.08-.241l-.062-.415a.55.55 0 0 0-.079-.241c-.036-.06-.052-.13-.046-.2s-.01-.144-.047-.205a.54.54 0 0 1-.079-.241l-.063-.416c-.017-.112-.053-.207-.08-.207s-.046-.093-.046-.205c.007-.082-.01-.164-.048-.237-.046-.072-.073-.155-.08-.24q-.03-.207-.063-.415a.54.54 0 0 0-.079-.239c-.037-.062-.053-.133-.046-.205a.32.32 0 0 0-.053-.208.29.29 0 0 1-.052-.2c.002-.077-.01-.153-.038-.225a11.66 11.66 0 0 0-2.208-.088m9.734 2.973l.176 4.007c.026.042.04.1.038.14 0 .383.8 1.357 1.114 1.357.043 0 .08.024.08.053 0 .1.4.14 1.3.14s1.3-.043 1.3-.14c0-.03.038-.053.08-.053a.5.5 0 0 0 .2-.072c.28-.212.516-.476.695-.778 0-.052.024-.094.056-.094s.054-.053.054-.118.023-.118.053-.118.054-.08.054-.174a.28.28 0 0 1 .054-.2.63.63 0 0 0 .054-.324.64.64 0 0 1 .054-.325c.035-.023.054-1.142.054-3.16v-3.124h-2.05v3.365l-.054 3.363c-.035 0-.054.042-.054.1 0 .136-.16.383-.25.383-.064.01-.126.033-.18.07-.108.073-.137.067-.495-.124-.05-.03-.087-.074-.1-.126q-.047-.1-.1-.218c-.08-1.154-.1-2.312-.063-3.468v-3.333h-2.064v2.993zm9.982 1.283l.05 4.346c.04.054.28.072.815.072h.764v-8.694h-1.63zm6.312.07v4.346h1.8l.032-.144c.017-.08.023-1.286.014-2.68q-.018-1.268 0-2.535c.078 0 .17.208.17.382 0 .118.02.213.046.213s.064.095.08.208l.064.417c.017.114.054.208.08.208s.046.093.046.2a.4.4 0 0 0 .053.241c.04.06.06.135.053.208a.32.32 0 0 0 .053.208.32.32 0 0 1 .053.208.32.32 0 0 0 .053.208.31.31 0 0 1 .053.208c-.006.073.012.147.053.208a.31.31 0 0 1 .053.208.32.32 0 0 0 .053.207c.04.06.06.135.053.208a.32.32 0 0 0 .053.208.39.39 0 0 1 .053.24c0 .112.022.205.05.205s.06.083.078.2c.074.476.1.613.173.683a7.19 7.19 0 0 0 2.151 0v-8.573l-1.812-.03v2.62l-.043 2.62c-.063 0-.17-.3-.17-.482.005-.07-.01-.14-.048-.2a.53.53 0 0 1-.081-.241l-.063-.417c-.008-.086-.035-.168-.08-.24-.037-.062-.053-.134-.046-.205s-.007-.144-.043-.206a.55.55 0 0 1-.081-.241l-.064-.416c-.017-.114-.054-.208-.08-.208s-.046-.093-.046-.205c.007-.083-.01-.166-.05-.24a.53.53 0 0 1-.08-.24l-.064-.417c-.017-.112-.054-.208-.08-.208s-.046-.093-.046-.205a.39.39 0 0 0-.054-.241.25.25 0 0 1-.053-.17c-.006-.1-.028-.2-.066-.294l-.067-.16h-2.213zm10.87 0v4.347h4.348v-.893l-.013-.9q-.623-.034-1.247-.046l-1.235-.03v-1.733l2.2-.03v-1.727h-2.164l-.03-.095a7.81 7.81 0 0 1 0-1.357l.03-.095h2.362v-1.786h-4.25zm230.1-4.765a.98.98 0 0 1 .364.11.35.35 0 0 0 .215.064c.087 0 .154.03.154.07a.07.07 0 0 0 .075.07 4.51 4.51 0 0 1 1.443 1.325c.278.5.344.65.344.764.002.073.028.143.073.2a7.24 7.24 0 0 1 .014 2.135c-.052.06-.083.138-.087.218 0 .07-.03.126-.066.126s-.067.05-.067.1c-.04.208-.136.4-.28.556a.5.5 0 0 0-.117.2c-.23.32-.513.6-.84.82-.053 0-.093.023-.093.056 0 .064-.32.225-.446.225-.043-.003-.08.028-.086.07 0 .038-.1.07-.2.07a.33.33 0 0 0-.236.071c-.295.068-.598.092-.9.07a2.96 2.96 0 0 1-.9-.07.22.22 0 0 0-.156-.055.93.93 0 0 1-.352-.134l-.386-.228a5.3 5.3 0 0 1-.632-.588 3.25 3.25 0 0 1-.892-1.535.39.39 0 0 0-.069-.229 2.64 2.64 0 0 1-.04-.873c.034-.892.093-1.326.183-1.326.032 0 .06-.064.06-.14s.03-.14.067-.14.06-.063.06-.128c.012-.1.06-.17.133-.225a.32.32 0 0 0 .133-.183 3 3 0 0 1 .84-.87c.052 0 .093-.024.093-.057a1.35 1.35 0 0 1 .673-.364c.066 0 .13-.036.13-.07s.107-.065.247-.065c.122.004.243-.022.353-.076a2.98 2.98 0 0 1 1.2.039m-1.1-.6a2.81 2.81 0 0 0-.652.128.65.65 0 0 1-.283.07c-.092.004-.165.036-.165.075s-.06.07-.133.07-.133.032-.133.072-.06.07-.134.07-.133.032-.133.07-.046.077-.1.077c-.486.385-.92.832-1.3 1.33q-.118.226-.227.456l-.2.4a.88.88 0 0 0-.06.298c.007.078-.015.155-.062.217a5.31 5.31 0 0 0 .142 2.3c.032.07.05.148.057.226 0 .056.03.1.066.1s.067.05.067.107a1.11 1.11 0 0 0 .281.554.53.53 0 0 1 .117.2 4.1 4.1 0 0 0 .785.828.49.49 0 0 1 .18.12 2.15 2.15 0 0 0 .792.441c.06 0 .105.028.105.064 0 .1.433.162 1.378.193.6.02.884.007.884-.043s.06-.073.133-.073c.238-.016.467-.094.665-.226 0-.03.06-.056.133-.056s.133-.027.133-.06.073-.1.166-.14a4.33 4.33 0 0 0 1.3-1.4c0-.05.023-.085.053-.085.06 0 .213-.336.213-.47 0-.05.024-.1.053-.1.08 0 .212-.527.212-.835a.55.55 0 0 1 .067-.324 1 1 0 0 0 .066-.455 1 1 0 0 0-.066-.456.52.52 0 0 1-.068-.32.55.55 0 0 0-.066-.316.24.24 0 0 1-.066-.175 4.59 4.59 0 0 0-.467-1.054 2.88 2.88 0 0 1-.2-.28 2.23 2.23 0 0 0-.7-.7c-.04 0-.116-.063-.167-.14s-.122-.135-.16-.135a.6.6 0 0 1-.237-.146.6.6 0 0 0-.315-.14c-.08 0-.15-.032-.15-.07s-.087-.07-.2-.07-.2-.028-.2-.064-.154-.076-.348-.093c-.15-.01-.3-.034-.45-.068a2.9 2.9 0 0 0-.627.023"/><path d="M351.83 138.788c.114.08.215.175.3.285.116.174.123.6.012.6a.09.09 0 0 0-.08.1c0 .127-.186.28-.343.28-.056-.004-.1.017-.148.058-.254.062-.515.1-.776.083l-.75.025-.064-.134a3.57 3.57 0 0 1-.122-.691c-.08-.748-.08-.748.953-.748h.808zm-2.722-.585l-.272.063.06.686.127 1.74.12 1.423.053.367h.36c.456 0 .623-.123.544-.4a5.41 5.41 0 0 1-.095-.707l-.04-.5.144-.087a3.54 3.54 0 0 1 1.473-.028c0 .034.056.064.12.064.336 0 .68.532.68 1.05-.016.144.028.288.12.4l.12.1.56-.16v-.475a.96.96 0 0 0-.08-.5c-.054-.037-.084-.098-.08-.163s-.026-.125-.058-.125-.1-.067-.14-.144a.57.57 0 0 0-.26-.208c-.095-.034-.18-.086-.18-.1s-.057-.05-.12-.05-.12-.03-.12-.064.055-.064.12-.064.12-.023.12-.05.1-.083.22-.127c.14-.06.26-.162.342-.3.137-.237.14-1.02.007-1.057-.05-.02-.085-.066-.088-.12 0-.15-.425-.4-.68-.4-.064 0-.12-.03-.12-.064a17.23 17.23 0 0 0-2.953.007zM.01 181.012a31.96 31.96 0 0 1 3.366-12.482 40.88 40.88 0 0 1 4.6-7.507 30.7 30.7 0 0 1 8.2-7.42 33.51 33.51 0 0 1 7.051-3.34 39.07 39.07 0 0 1 7.751-1.747 26.41 26.41 0 0 1 6.492-.01c3.885.323 7.628 1.6 10.9 3.744a13.64 13.64 0 0 1 5.587 7.71 9.5 9.5 0 0 1-3.333 9.048 8.28 8.28 0 0 1-5.206 1.981 13.27 13.27 0 0 1-7.414-1.882 7.76 7.76 0 0 1-3.918-6.188 6.42 6.42 0 0 1 1.677-5.187c2.928-3.063 7.914-2.27 11.332-.645.448.212 1.413.953 1.9.514.98-.866-1.4-2.347-1.963-2.656-5.177-2.865-11.852-2.08-17.092.17a25.44 25.44 0 0 0-8.394 5.933 22.27 22.27 0 0 0-5.078 8.387 23.3 23.3 0 0 0-1.262 7 19.34 19.34 0 0 0 .876 7.064 10.3 10.3 0 0 0 4.21 5.208 8.48 8.48 0 0 0 6.741 1.123 6.88 6.88 0 0 0 5.164-4.69 7 7 0 0 0-1.776-7.616c-.222-.235-.493-.456-.694-.715a.49.49 0 0 1-.016-.57c.117-.174.33-.256.533-.204.518.124 1.06.4 1.476.534q1.364.443 2.728.9 2.728.9 5.455 1.78 3.325 1.08 6.66 2.136c.622.2.806.67.445 1.37l-2.038 3.853-3 5.332a38.16 38.16 0 0 0-3.231 7.956 19.9 19.9 0 0 0-.749 5.649c.006.4.122.8.14 1.2a1.7 1.7 0 0 1-.15.53c-.17-.068-.388-.093-.5-.213a21.71 21.71 0 0 0-4.492-3.86 3.8 3.8 0 0 0-1.867-.568c-1.678.008-3.35.206-4.983.6-2.6.516-5.257.807-7.915.872a10.06 10.06 0 0 1-2.462-.328 20.9 20.9 0 0 1-5.986-2.438 18.63 18.63 0 0 1-6.472-6.47c-2.1-3.498-2.784-7.27-3.2-11.258a19.61 19.61 0 0 1-.094-2.577m61.886 7.3l.174.134a5.51 5.51 0 0 0 .656-.307 27.75 27.75 0 0 0 6.961-6.041 17.39 17.39 0 0 0 3.8-7.934c.206-.84.184-1.72-.064-2.548a1.5 1.5 0 0 0-2.035-.923c-.6.304-1.14.7-1.6 1.2a17.41 17.41 0 0 0-2.912 4.649l-4.73 10.72a6.01 6.01 0 0 0-.25 1.05zm14.67 32.4l-1.3-.272c-3.95-.8-6.745-3.2-8.925-6.454-2.472-3.7-2.8-7.817-2.547-12.172a10.97 10.97 0 0 0-.433-3.921 7.37 7.37 0 0 0-1.978-3.292 2.1 2.1 0 0 0-2.993-.027c-.8.74-1.463 1.633-1.923 2.63a23.08 23.08 0 0 0-1.784 5.441c-.478 2.245-1.408 5.263-.327 7.5.266.552.8 1 .915 1.627.2.994-2.37-.093-2.784-.218-1.95-.584-3.917-.95-5.9-1.354a6.01 6.01 0 0 1-2.43-.7c-1.027-.76-.62-2.432-.5-3.5.215-1.862.6-3.703 1.123-5.5a54.67 54.67 0 0 1 3.494-8.969l2.957-5.806c1-2.062 2-4.13 2.9-6.24q1.154-2.768 2.06-5.63a33.11 33.11 0 0 0 1.74-8.184 28.4 28.4 0 0 0-.05-6.107 13.12 13.12 0 0 0-1.086-2.67c-.234-.6 1.63-.12 1.93-.058l2.33.467c1.66.286 3.33.517 4.993.768a9.78 9.78 0 0 1 1.244.181c.438.13.747.522.768.98.047.997.006 1.996-.124 2.985-.04.5-.277 2.1.62 1.4.387-.272.75-.58 1.08-.917a20.41 20.41 0 0 1 5.907-4.7 5.04 5.04 0 0 1 5.973 1.008 6.47 6.47 0 0 1 1.522 3.31 18.92 18.92 0 0 1-.422 8.118 29.75 29.75 0 0 1-5.125 9.774 46.38 46.38 0 0 1-5.667 6.2c-.793.74-1.638 1.425-2.484 2.1l-1.25 1.008c-.224.182-1.086.755-.8 1.1a1.73 1.73 0 0 0 .445.309c.537.313 1.14.5 1.686.78a7.26 7.26 0 0 1 2.4 2.158 10.31 10.31 0 0 1 1.884 4.691c.27 1.95.315 3.93.544 5.888a12.24 12.24 0 0 0 3.028 6.972 10.93 10.93 0 0 0 4.747 3.135 10.03 10.03 0 0 0 4.256.336 10.98 10.98 0 0 0 2.838-.7c.28-.1 2.4-1.327 2.154-.492-.214.737-1.415 1.664-1.96 2.177a18.53 18.53 0 0 1-5.583 3.607 15.69 15.69 0 0 1-4.065 1.115c-.053.007-.1.064-.148.1H76.56zm147.228-65.512a18.89 18.89 0 0 0 .441 4.925c.4 1.953.9 5.192 2.736 6.355a1.43 1.43 0 0 0 1.677-.044 6.2 6.2 0 0 0 1.071-1.355 10.4 10.4 0 0 0 1.062-3.888 38.02 38.02 0 0 0 .168-4.627 8.49 8.49 0 0 0-1.171-4.421 2.89 2.89 0 0 0-2.927-1.611 2.97 2.97 0 0 0-2.575 2.077 10.34 10.34 0 0 0-.483 2.59m-1.262 23.264a22.85 22.85 0 0 0 1.97 9.9 10.44 10.44 0 0 0 4.05 5.05.72.72 0 0 1 .32.522c0 .13-.246.322-.417.375q-4.936 1.54-9.9 2.982-2.423.694-4.808 1.513a23.86 23.86 0 0 1-3.458 1.247.71.71 0 0 1-.8-.915c.272-.8.87-1.755 1.06-2.274a31.65 31.65 0 0 0 1.042-3.607q1.008-4.352 1.865-8.736c.5-2.567.965-5.145 1.3-7.737q.175-1.327.242-2.665c.116-2.22.324-4.457.32-6.692l-.1-7.484c-.083-2.124-.2-4.256-.475-6.363a20.39 20.39 0 0 0-2.618-7.939 15.15 15.15 0 0 0-5.24-5.47c-.185-.1-.4-.36-.4-.532s.262-.417.456-.48c1.427-.46 2.85-.954 4.3-1.3 2.07-.5 4.17-.87 6.258-1.28a1.72 1.72 0 0 1 1.909.77 13.53 13.53 0 0 0 1.084 1.367c.326.366.46.313.724-.1a22.22 22.22 0 0 1 1.846-2.835 5.14 5.14 0 0 1 4.05-2 8.31 8.31 0 0 1 5.51 2.407 19.63 19.63 0 0 1 4.78 7.1c1.12 2.6 1.96 5.332 2.5 8.12a12.52 12.52 0 0 1 .249 2.379c.008 1.727.04 3.464-.112 5.183a28.7 28.7 0 0 1-1.413 6.517 30.78 30.78 0 0 1-2.93 6.374 7.33 7.33 0 0 1-9.127 2.644 8.42 8.42 0 0 1-2.468-1.895c-.17-.176-.518-.413-.646-.347a1.01 1.01 0 0 0-.446.676 26.58 26.58 0 0 0-.486 5.428v.1m31.64-25.53c.058 2.532.4 5.05 1.053 7.5a7.28 7.28 0 0 0 1.895 3.513 1.42 1.42 0 0 0 2.363-.177 9.25 9.25 0 0 0 1.7-4.049 18.5 18.5 0 0 0 .073-6.75c-.2-1.268-.765-2.454-1.608-3.425-.548-.7-1.386-1.1-2.268-1.074a2.84 2.84 0 0 0-2.232 1.146c-.705.957-1.052 2.132-.978 3.32m.184 16.034a6.29 6.29 0 0 0-.2.848l-.442 5.8c-.152 1.633-.058 3.28.278 4.886.6 2.738 1.44 5.4 3.5 7.485a8.41 8.41 0 0 0 1.3.9 6.79 6.79 0 0 1 .834.571c.13.118.255.412.193.52a.74.74 0 0 1-.539.292c-.566.023-1.135-.032-1.7-.035-1.5-.006-3-.063-4.5.014l-6.727.507a27.13 27.13 0 0 0-6.58 1.362c-.294.1-.58.192-.795-.1-.234-.32-.022-.558.18-.8a13.02 13.02 0 0 0 2.269-4.328q.966-3.1 1.662-6.295l1.144-6.668.577-6.706.15-7.525c-.02-1.7-.222-3.4-.376-5.093l-.44-3.7c-.552-4.002-1.8-7.875-3.717-11.437a24.85 24.85 0 0 0-2.911-4.2c-.375-.426-.352-.7.177-.9a26.12 26.12 0 0 1 3.126-.948 25.77 25.77 0 0 1 5.914-.307 16.24 16.24 0 0 1 2.154.2c.5.1.913.456 1.082.938.4.918.756 1.86 1.158 2.777a3.91 3.91 0 0 0 .484.672 3.93 3.93 0 0 0 .656-.506c1.115-1.436 2.5-2.64 4.076-3.544a6.7 6.7 0 0 1 7.028.316 11.66 11.66 0 0 1 4.1 4.359c1.365 2.497 2.225 5.24 2.53 8.07.22 1.378.35 2.77.388 4.164-.02 1.954-.214 3.9-.378 5.86-.247 2.594-.77 5.153-1.56 7.636a12.66 12.66 0 0 1-1.954 4.412 7.7 7.7 0 0 1-7.088 3.178 7.33 7.33 0 0 1-4.337-2.038c-.2-.185-.405-.36-.712-.635m-143.13 32.45a.66.66 0 0 0-.043.388 3.33 3.33 0 0 0 .807 1.837 8.01 8.01 0 0 0 6.034 2.858 5.89 5.89 0 0 0 5.153-3c1.445-2.407 1.268-5.008.3-7.568a41.4 41.4 0 0 0-4.644-8.538l-4.27-6c-3.7-5.446-5.068-13.508-1.596-19.446a10.3 10.3 0 0 1 7.482-5.277c4.2-.518 9.608 1.507 10.412 6.273a5.84 5.84 0 0 1-2.3 5.858 5.98 5.98 0 0 1-6.935-.642c-1.63-1.316-2.834-3.68-2.2-5.7.82-2.64 2.854-3.45 5.317-3.578a1.02 1.02 0 0 0 .449-.093c.144-.07.225-.228.2-.387a.48.48 0 0 0-.22-.254 2.61 2.61 0 0 0-1.148-.376c-2.312-.25-4.5 1.332-5.652 3.2-1.335 2.187-.706 5.307.447 7.55a60.28 60.28 0 0 0 5.64 8.285l4.163 5.5c.914 1.2 1.9 2.35 2.75 3.6 2.16 3.08 3.344 6.738 3.4 10.5a13.82 13.82 0 0 1-4.262 10.427 12.61 12.61 0 0 1-8.961 3 15.52 15.52 0 0 1-9.362-3.548 12.37 12.37 0 0 1-2.282-2.543c-1.67-2.695-1.6-6.12.158-8.753a6.92 6.92 0 0 1 8.173-2.088 6.51 6.51 0 0 1 3.493 3.127 5.67 5.67 0 0 1-5.521 8.22 6.42 6.42 0 0 1-2.9-1.059c-.787-.5-1.47-1.13-2.013-1.88a.4.4 0 0 0-.083.1m160.497-40.195a31.23 31.23 0 0 1 2.521-12.126c1.552-3.663 3.74-7.37 7.1-9.686 1.744-1.208 3.75-1.987 5.85-2.274 7.675-1.1 13.092 6.727 12.763 13.576a11.71 11.71 0 0 1-2.525 6.833 13.59 13.59 0 0 1-1.92 1.927c-2.517 2.07-6.034 3.7-9.245 2.214a8.04 8.04 0 0 1-4.937-6.228 16.85 16.85 0 0 1 .24-6.677c.01-.083.037-.163.08-.234.1-.123.227-.317.332-.3s.28.182.334.317c.2.486.3 1.005.513 1.48a4.14 4.14 0 0 0 3.352 2.5 4.07 4.07 0 0 0 3.22-.88 6.47 6.47 0 0 0 2.455-6.1 5.77 5.77 0 0 0-1-2.787c-2.238-2.95-6.284-.97-8.2 1.232a15.45 15.45 0 0 0-3.243 8.736 23.2 23.2 0 0 0-.08 3.153c.03 1.998.505 3.965 1.392 5.756a8.25 8.25 0 0 0 5.721 4.326c4.583 1.054 8.656-1.67 10.777-5.558.28-.514.7-.48 1 .07a8.3 8.3 0 0 1 .886 3.26c.753 6.792-4.78 13.674-11.665 14.5-3.634.335-7.24-.878-9.935-3.34a15.52 15.52 0 0 1-4.849-7.327c-.634-2.06-.953-4.204-.946-6.36m-69.604 24.52a8.48 8.48 0 0 1-1.953.9c-2.257.613-4.662.35-6.733-.737-2.523-1.25-4.683-3.127-6.273-5.45a22 22 0 0 1-4.1-9.53 21.62 21.62 0 0 1-.266-4.1c.052-1.535.317-3.063.5-4.595.37-2.816.414-5.664.135-8.5-.256-2.36-.827-4.6-2.8-6.228-1.08-1.014-2.48-1.622-3.96-1.722a6.67 6.67 0 0 0-5.577 2.986c-2.043 2.742-3.378 5.945-3.886 9.326a6.49 6.49 0 0 1-.3.915h-.164a3.72 3.72 0 0 1-.342-.646c-.476-1.57-.98-3.134-1.388-4.723-.52-2.045-.974-4.108-1.427-6.17q-.477-2.182-.87-4.38c-.227-1.266-.454-2.538-.577-3.816q-.124-1.176-.17-2.358a13.15 13.15 0 0 0-.023-2.34c-.285-1.3-1.744-.682-2.612-.475-4.7 1.118-9.42 2.27-14.176 3.156a1.44 1.44 0 0 0-.572.162 1.1 1.1 0 0 0 .753.689 18.5 18.5 0 0 1 2.57.874 10.29 10.29 0 0 1 3.271 3.116 26.23 26.23 0 0 1 2.649 5.207 39.23 39.23 0 0 1 1.357 3.719q1.1 3.635 2.1 7.3l2.45 9.335 1.467 5.96q.758 3.3 1.428 6.6c.28 1.4.515 2.794.713 4.2.258 1.843.578 3.7.656 5.543a22.58 22.58 0 0 1-.547 6.623 5.4 5.4 0 0 1-1.22 2.431c-.225.24-.722.48-.4.845a1.2 1.2 0 0 0 1.013.155l7.125-2.123c2.355-.77 4.677-1.647 7.012-2.477a12.7 12.7 0 0 0 1.245-.463.67.67 0 0 0 .331-.455c.012-.107-.2-.27-.36-.354a1.57 1.57 0 0 0-.58-.2 3.83 3.83 0 0 1-3.14-2.387c-.556-1.195-1.026-2.428-1.406-3.7-.8-2.64-1.6-5.28-2.23-7.966a65.98 65.98 0 0 1-1.07-6.655q-.35-2.845-.457-5.712a22.67 22.67 0 0 1 .192-3.654 19.19 19.19 0 0 1 .683-3.17 2.64 2.64 0 0 1 1.678-1.873c.6-.274 1.28-.224 1.826.132a1.56 1.56 0 0 1 .467 1.546 34.26 34.26 0 0 0-.681 6.82 34.25 34.25 0 0 0 .394 7 23.08 23.08 0 0 0 2.666 7.035 27.34 27.34 0 0 0 6.8 7.494 11.55 11.55 0 0 0 6.093 2.565c4.17.406 8.332-.86 11.57-3.517 1.173-.983 2.223-2.104 3.127-3.34a1.42 1.42 0 0 1 .235-.323c-.734.483-1.466 1.022-2.235 1.483m-62.96 13.7a.64.64 0 0 0 0 .393 3.3 3.3 0 0 0 1.066 1.73c1.804 1.602 4.203 2.363 6.6 2.093a6.14 6.14 0 0 0 4.957-3.63c1.2-2.58.688-5.152-.64-7.582a41.31 41.31 0 0 0-5.872-7.931l-5.167-5.437c-4.517-4.974-6.928-12.84-4.077-19.195a10.69 10.69 0 0 1 7.085-6.2c4.282-1.042 10.132.3 11.56 4.95a5.75 5.75 0 0 1-1.645 6.127 6.43 6.43 0 0 1-7.258.23c-1.853-1.107-3.392-3.312-2.992-5.418.52-2.733 2.525-3.8 5.058-4.23a1.12 1.12 0 0 0 .453-.148c.14-.08.204-.254.16-.4a.48.48 0 0 0-.258-.225 2.78 2.78 0 0 0-1.23-.228c-2.395.2-4.486 1.698-5.45 3.9-1.108 2.348-.07 5.38 1.406 7.47a60.95 60.95 0 0 0 6.872 7.554l5 4.964c1.1 1.082 2.258 2.1 3.3 3.24a18.48 18.48 0 0 1 4.836 10.044 13.57 13.57 0 0 1-3.11 10.93 13.42 13.42 0 0 1-8.9 4.115 16.62 16.62 0 0 1-10.132-2.364 12.7 12.7 0 0 1-2.68-2.252c-2.063-2.453-2.43-5.912-.93-8.744 1.568-2.8 5.147-3.86 8.2-3.1a6.73 6.73 0 0 1 4.005 2.68 5.7 5.7 0 0 1-4.686 8.886 6.85 6.85 0 0 1-3.128-.694 7.38 7.38 0 0 1-2.32-1.622c-.03.034-.055.072-.073.114m188.662-49.844a7.34 7.34 0 0 0 .322-1.288 7.42 7.42 0 0 0-2.638-6.857 6.9 6.9 0 0 0-5.481-1.3c-2.9.558-5.184 3.354-7.264 5.243-.28-1.67.086-3.785-1.7-4.73a4.78 4.78 0 0 0-1.408-.413l-10.068-1.868c-.585-.1-2.284-.716-2 .462a14.42 14.42 0 0 0 1.511 2.491c.478.9.9 1.85 1.266 2.8a29.4 29.4 0 0 1 1.534 5.845 45.2 45.2 0 0 1-.041 12.814 33.32 33.32 0 0 1-2.353 9.32 16.24 16.24 0 0 1-6.056 7.32 174.58 174.58 0 0 1 17.783 4.256.76.76 0 0 0 .631 0c.387-.258.026-.842-.3-1.174-1.047-1.193-1.76-2.642-2.065-4.2a34.23 34.23 0 0 1-.627-10.418c.428-6.75 1.8-13.7 5.834-19.134-.37 2.212.7 4.415 2.687 5.476 3.992 2.18 9.025-.624 10.426-4.653m-11.718 27a.53.53 0 0 0-.2.258 2.74 2.74 0 0 0-.21 1.677 6.9 6.9 0 0 0 3.188 4.731 5.11 5.11 0 0 0 5.1.142c1.974-1.082 3.294-3.06 3.533-5.3a34.25 34.25 0 0 0 .325-8.189l-.516-6.194c-.338-5.56 2.2-11.942 7.353-14.66a8.91 8.91 0 0 1 7.818-.46c3.318 1.5 6.4 5.35 4.914 9.127a4.88 4.88 0 0 1-4.256 3.182c-2.192-.053-4.117-1.467-4.823-3.543-.624-1.668-.474-3.9.883-5.073 1.76-1.53 3.612-1.207 5.48-.2a.9.9 0 0 0 .371.133c.136.015.266-.062.318-.2a.39.39 0 0 0-.05-.278 2.26 2.26 0 0 0-.681-.782 5.44 5.44 0 0 0-5.562-.215c-1.94.975-2.846 3.492-2.98 5.614a50.51 50.51 0 0 0 .52 8.45l.652 5.8c.147 1.268.368 2.53.448 3.8.242 3.16-.5 6.317-2.1 9.046a11.55 11.55 0 0 1-7.707 5.586c-2.774.416-5.602-.238-7.9-1.83-2.46-1.595-4.334-3.95-5.335-6.706-.32-.915-.5-1.87-.565-2.84-.05-2.678 1.5-5.126 3.958-6.213a6.05 6.05 0 0 1 6.93 2.137 5.5 5.5 0 0 1 1.2 3.8 4.8 4.8 0 0 1-7.664 3.441c-.712-.538-1.284-1.24-1.667-2.047a6.01 6.01 0 0 1-.658-2.243.36.36 0 0 0-.107.038M95.6 186.68v-.08c0-.02-.007-.04-.022-.056-.022-.013-.048-.015-.072-.006-1.047.252-1.8 1.317-2.564 2.02a23.3 23.3 0 0 0-2.561 2.728c-1.44 1.846-2.594 4.183-2 6.6.37 1.478 1.587 3.594 3.323 2.52.892-.677 1.548-1.617 1.877-2.687.982-2.6 1.037-5.36 1.615-8.056a9.25 9.25 0 0 0 .405-2.981m11.033-10a92.83 92.83 0 0 1-1.637 13.8q-.44 2.7-.984 5.4a11 11 0 0 0 .653 6.391 11.36 11.36 0 0 0 3.463 4.5 23.39 23.39 0 0 0 2.364 1.612c.425.273.466.4.16.82-.593.78-1.43 1.337-2.38 1.584a11.52 11.52 0 0 1-5.618.329 7.74 7.74 0 0 1-5.024-3.73c-.218-.334-.4-.7-.586-1.046-.24-.423-.365-.44-.708-.13a27.44 27.44 0 0 1-6.644 4.915c-2.6 1.16-5.54 1.22-8.175.17-3.06-1.286-4.663-3.838-5.22-7.05a14.11 14.11 0 0 1 2.02-10.156c1.94-3.114 4.742-5.3 7.535-7.55a103.87 103.87 0 0 0 8.713-7.894 11.12 11.12 0 0 0 2.9-9.615c-.718-3.04-3.105-5.407-6.15-6.1-.566-.156-2.482-.28-2.514.68a.45.45 0 0 0 .46.413 13.07 13.07 0 0 1 1.595-.167c5.3.678 6.606 9.454 2.166 12.1a5.72 5.72 0 0 1-4.538.625 6.91 6.91 0 0 1-4.5-4.685 8.2 8.2 0 0 1 2.322-7.924c2.422-2.43 5.896-3.492 9.263-2.832 3.2.563 6.957 2.4 8.624 5.4.44.826.818 1.68 1.135 2.56a19.8 19.8 0 0 1 1.277 6.015c.027.52.035 1.047.03 1.575m92.864-7.556c-3.294.075-6.067-4.607-6.193-10.46s2.44-10.655 5.735-10.73 6.066 4.607 6.193 10.46-2.44 10.655-5.735 10.73m12.4-5.778c.18-11.4-5.5-20.743-12.7-20.864s-13.182 9.027-13.362 20.43 5.5 20.743 12.7 20.864 13.183-9.027 13.362-20.43"/></svg>