<svg xmlns="http://www.w3.org/2000/svg" width="355" height="355" fill="#1a1a18" xmlns:v="https://vecta.io/nano"><path d="M348.093 148.46c-3.23-.077-5.912 2.472-6 5.7.06 3.246 2.708 5.846 5.954 5.846s5.895-2.6 5.954-5.846c-.067-3.2-2.706-5.747-5.908-5.7zm0 10.4a4.66 4.66 0 0 1-4.544-4.721 4.66 4.66 0 0 1 4.668-4.599 4.66 4.66 0 0 1 4.654 4.614c-.007 1.258-.515 2.462-1.41 3.346s-2.107 1.374-3.366 1.363z"/><path d="M351.105 152.695a1.62 1.62 0 0 0-.706-1.412 3.26 3.26 0 0 0-1.647-.306h-2.895v6.472h.988v-3h1.177l1.906 3h1.106l-2-3c1.177-.024 2.07-.518 2.07-1.765zm-3.2.965h-1.06v-1.953h1.718c.847 0 1.577.118 1.577.965-.001 1.176-1.295.988-2.237.988zm-194.95-4.848l-29.982 58.386h-17.885l11.7-22.686h-13.795l-11.7 22.686h-17.88l30.005-58.386h17.862l-11.06 21.556h13.814l11.06-21.556zm26.828 0l-30.005 58.386h-18.05l30-58.386zm13.65 21.558l-7.248 14.143H168.44l7.25-14.143zm47.514-21.558l-7.225 14.05h-11.978l-22.8 44.337H181.9l22.8-44.337h-12.257l7.225-14.05zm15.814 13.46l-4.354 8.52h21.274l-6.707 13.014H245.7l-4.87 9.437h26.287l-7.154 13.955h-43.82l30.005-58.386h43.82l-6.9 13.46zM66.023 178.5c-.54 17.432-14.744 31.33-32.183 31.5S1.943 196.53 1.08 179.1s12.175-32.414 29.545-33.978 32.878 10.86 35.14 28.153H7.213c17.156 6.92 22.4 17.368 22.4 17.368h8.1a30.24 30.24 0 0 0-9.766-10.66c8.684 2.283 13.908 10.66 13.908 10.66h7.884c-2.848-7.32-12.52-12.143-12.52-12.143zm249.547-6.258c2.683-4.942 4-11.178-2.024-11.178-7.93 0-14.52 12.2-17.344 17.72-3.036 5.883-7.813 15.838.26 15.838 5.53 0 10.2-4.848 12.9-9.72l15.838 1.012c-8 13.485-22.286 22.12-35.724 22.12-17.532 0-20.192-12.66-11.673-29.252 8.684-16.874 23.93-30.806 42.3-30.806 14.9 0 18.85 8.85 12.567 23.392z"/></svg>