<svg xmlns="http://www.w3.org/2000/svg" width="355" height="355" fill="#030504" fill-rule="evenodd" xmlns:v="https://vecta.io/nano"><path d="M328.207 170.42c1.094 4.264 1.162 8.273 3.86 11.356 3.268 3.735 7.668 4.9 12.4 5.012 1.684.037 3.16.13 4.5 1.354.845.774 2.006 1.2 2.993 2.232a8 8 0 0 1-1.892.558 69.99 69.99 0 0 1-11.451-.191 18.58 18.58 0 0 1-15.287-11.747c-1.628.533-2.54 1.9-3.6 3.066-3.027 3.584-6.75 6.516-10.943 8.62-4.23 1.967-8.436 2.184-12.643-.065-1.783-.953-2.344-1.482-3.98-3.987l-3.57 2.126c-4.7 2.87-8.354 2.627-12.665-.843a16.08 16.08 0 0 1-6.037-8.782l-2.33 3.15c-1.47 1.987-2.7 4.227-4.463 5.908-3.646 3.477-4.388 3.312-7.747-.318-2.018-2.183-2.828-5.034-3.385-7.915-.262-1.358-.443-2.73-.7-4.314-.33.2-.636.455-.914.73a93.79 93.79 0 0 1-10.267 12.12c-1.26 1.136-2.6 2.182-4.008 3.13-.652.428-1.365.754-2.115.968-2 .86-4.32.013-5.3-1.93a11.89 11.89 0 0 1-1.751-5.837c-.155-2.8-.04-5.636-.04-8.4-1.862 1.038-2.35 4.008-5.018 4.812a41.72 41.72 0 0 1-.556-4.974c.105-.842.45-1.636.995-2.287l7.167-9.767c.923-1.217 2.542-1.673 3.964-1.116a2.6 2.6 0 0 1 1.8 3.015c-.168 1.402-.44 2.8-.813 4.15-.412 1.72-.86 3.43-1.357 5.126-.603 2.472-.66 5.046-.164 7.542.118.82.315 1.626.544 2.777 1.217-.8 2.312-1.417 3.287-2.185a40.68 40.68 0 0 0 7.986-8.769c1.673-2.374 3.242-4.82 4.875-7.222.413-.66.9-1.278 1.427-1.843 1.854-1.8 4.243-1.428 5.122.977a34.56 34.56 0 0 1 1.332 5.975c.36 2.086.534 4.2.874 6.294.177 1.087.535 2.145.85 3.367a9.18 9.18 0 0 0 2.785-3.184l4.884-6.952a10.8 10.8 0 0 1 .952-1.142c2.465-2.627 3.4-2.788 6.66-1.137.448 2.12.782 4.292 1.388 6.387a23.8 23.8 0 0 0 2.052 5.093c1.563 2.766 3.713 3.455 6.675 2.214a33.48 33.48 0 0 0 4.651-2.538c5.114-3.18 10.1-6.576 15.32-9.572a28.15 28.15 0 0 1 14.809-3.931 7.31 7.31 0 0 1 2.309.278c2.308.85 4.572 1.812 6.534 2.602zm-9.158 2.3a23.34 23.34 0 0 0-4.268-.207 26.39 26.39 0 0 0-9.134 3.267c-1.723.973-3.347 2.114-4.846 3.406-1.593 1.377-2.27 3.536-1.75 5.576.023.508.267.982.667 1.295a1.75 1.75 0 0 0 1.418.337 11.77 11.77 0 0 0 3.266-.724c4.368-2.043 8.34-4.846 11.728-8.277a11.11 11.11 0 0 0 2.919-4.673zm-191.62 13.766a18.91 18.91 0 0 0 10.589-6.6c2.415-2.775 4.586-5.76 6.86-8.658.394-.5.75-1.033 1.152-1.527 1.505-1.846 2.757-2.13 4.67-.8a3.2 3.2 0 0 1 1.043 1.97c.377 2.225.594 4.477.875 6.718l.42 3.26c1.292-1.5 2.278-2.55 3.174-3.68l7.87-10.024c1.18-1.488 1.936-1.648 3.646-.892a7.22 7.22 0 0 1 3.771 4.4c1.106 2.984 2.008 6.044 3.058 9.05 1.076 3.08 2.187 6.173 4.45 8.63 1.14 1.24 2.45 2.322 3.917 3.695l-.78 3.016c-1-.174-1.87-.273-2.716-.492a10.04 10.04 0 0 0-2.152-.477c-.854-.044-1.75-1.04-2.46-1.784-3.1-3.244-4.937-7.228-6.438-11.385-.7-1.913-1.308-3.853-2.072-6.114-.8.854-1.448 1.454-1.977 2.15l-7.666 10.2a14.92 14.92 0 0 1-1.69 1.908 3.49 3.49 0 0 1-5.62-.726 18.5 18.5 0 0 1-2.263-6.363c-.12-.518-.262-1.03-.5-1.944-1.7 1.713-3.2 3.1-4.545 4.616-2.98 3.237-6.572 5.854-10.567 7.7-.578.27-1.178.488-1.794.654-3.3.94-5.683-.082-7.263-3.122-1.572-3.024-1.873-6.345-2.194-9.657-.048-.5-.075-.98-.145-1.466-.018-.12-.167-.22-.413-.52l-5 2.975c-5.1 3.192-10.495 5.926-16.1 8.168-1.804.617-3.64 1.135-5.5 1.55-.488.098-1 .118-1.483.06-2.645-.2-3.82-1.487-3.758-4.128.068-2.857 1.645-4.93 3.675-6.682a38.15 38.15 0 0 1 8.8-5.5c4.3-2.02 8.326-4.6 12.934-5.9 2.054-.508 4.133-.908 6.228-1.2a2.65 2.65 0 0 1 2.327.732c.72.645 1.7.988 2.443 1.625a3.22 3.22 0 0 1 1.045 1.722c.506 3 .9 6 1.313 9.007l.8 5.856zm-31.636-2.274c3.968.94 17.713-6.512 19.776-10.577-5.384-.13-17.098 6.078-19.776 10.578zM43.6 191.104c.282 2.1 1 4.122-.04 6.033a15.23 15.23 0 0 1-2.173.656 2.15 2.15 0 0 1-1.316-.3 10.25 10.25 0 0 1-3.711-4.005l-.9-1.664c-6.4 0-12.638.15-18.852-.062a32.59 32.59 0 0 1-9.74-1.972c-1.188-.42-2-.98-2.122-2.3-.035-.347-.2-.677-.266-1.024-.638-3.54 1.107-5.2 4.4-3.926a29.13 29.13 0 0 0 10.178 1.774l13.26.4c-1.837-5.896-2.9-12.007-3.16-18.177-.223-6.067-.272-12.14-.4-18.42a10.82 10.82 0 0 0-1.381-.156c-3.046-.018-6.1.076-9.137-.05a11.09 11.09 0 0 1-3.885-.879 4.25 4.25 0 0 1-2.065-5.587 2.66 2.66 0 0 1 1.416-1.133 12.44 12.44 0 0 1 5.85-.72 128.21 128.21 0 0 0 15.467.7 47.33 47.33 0 0 1 15.263 2.176 14.35 14.35 0 0 1 6.753 4.243 7.53 7.53 0 0 1 1.491 2.966c.318 1.324-.35 1.85-1.686 1.484-.868-.237-1.665-.62-1.976.73-5.454-2.63-11.143-3.3-16.9-3.53-2.24 9.235-1.52 27.18 1.97 35.8h8.7a36.6 36.6 0 0 1 8.322.777c.267 2.63-.546 3.866-2.78 4.357-.825.182-1.67.3-2.5.392-.933.01-1.845.276-2.638.766-.97.664-2.58.4-3.913.532l-1.52.133zm33.883-4.424l-4.726 1.957a62.61 62.61 0 0 0-.338 12.528 114.38 114.38 0 0 1 .13 11.9c-.147 1.187-.566 2.324-1.226 3.322-.48.85-2.1 1.376-2.608.885a3.04 3.04 0 0 1-1.078-2.116c.58-3.64-.423-7.17-.5-10.752-.1-3.6-.026-7.224-.03-10.835v-1.664c-.57-.067-1.148-.06-1.717.022-1.82.546-3.266.282-4.08-1.717.465-1.223 1.693-1.73 2.75-2.4.594-.382 1.242-.675 1.862-1.017a2.16 2.16 0 0 0 1.216-2.259c-.07-1.132-.075-2.267-.012-3.4l.7-15.673c.1-2.9.1-5.8.154-8.716v-2.453c3.18-2.025 5.834-.58 6.233 3.28.1.975.014 1.97.014 3.2 1-.294 2-.646 2.97-1.056 5.5-2.738 12.068.516 14.247 6.127.73 1.882.2 3.833-.392 5.608-2.355 6.96-6.722 12.217-13.547 15.235m-4.4-4.3a3.19 3.19 0 0 0 .674-.095c.333-.122.652-.28.953-.467a34.49 34.49 0 0 0 9.1-8.2 10.42 10.42 0 0 0 1.57-3.867c.293-1.442-.368-2.9-1.64-3.646-3.6-2.546-9.26-.454-10.215 3.813a15.9 15.9 0 0 0-.42 3.143c-.054 3.085-.02 6.18-.02 9.315zm144.89 4.57a5.05 5.05 0 0 1-2.687 2.739c-4.4 1.774-8.818 3.526-13.732 3-4.154-.44-8.283-.942-12.085-2.884-4.03-2.06-5.764-5.294-5.066-9.715.206-.666.075-1.4-.35-1.94-1.842-2.32-1.8-2.355-1.5-5.508a5.62 5.62 0 0 1 4.014-.757c.98.12 1.963-.197 2.688-.868a43.21 43.21 0 0 1 12.878-7.7 17.56 17.56 0 0 1 9.794-.818 9.46 9.46 0 0 1 1.626.477c2.2.93 2.774 2.435 1.786 4.62a13.4 13.4 0 0 1-7.238 6.837 45.46 45.46 0 0 1-11.463 2.975c-1.186.18-2.38.3-3.57.46-.8.1-1.742-.185-2.15.917-.418 1.124-.982 2.178-.43 3.45a5.06 5.06 0 0 0 3.243 2.87c2.2.723 4.467 1.293 6.756 1.705a38.22 38.22 0 0 0 12.231-.338 21.51 21.51 0 0 1 4.036-.012 4.08 4.08 0 0 1 1.22.5zm-21.492-14.05c4-1.3 7.732-2.485 11.092-4.607.25-.158.37-.522.56-.807-3.225-1.527-8.846 1.04-11.654 5.414z"/></svg>