<svg xmlns="http://www.w3.org/2000/svg" width="355" height="355" fill="#0d1319" xmlns:v="https://vecta.io/nano"><path d="M23.48 171.378q5.98 10.875 12.5 22.3l2.454-4.417 3.726-6.605 4.536-8.07 4.9-8.794 4.963-8.748q2.452-4.314 4.566-8.037h1.113l1.726 15.042 1.662 14.266 1.7 13.87 1.865 13.578c-.66-.114-1.33-.17-2-.168h-3.98a11.85 11.85 0 0 0-2 .168q-.925-10.785-1.857-20.92a595.13 595.13 0 0 0-2.287-20.669H56.9q-5.85 10.2-11.495 20.3-5.62 10.106-10.7 21.12h-.762q-5.085-10.207-10.632-20.47-5.547-10.264-11.147-20.95h-.167l-1.313 10.9-1.3 11.6-1.018 10.78-.433 8.313a26.32 26.32 0 0 0-5.925 0l2.285-13.864 2.3-14.668L8.61 162.67l1.6-13.662h1.442q5.837 11.514 11.817 22.377m139.242 13.33q-11.02-11.3-22.037-22.495l-.164 6.076-.086 10.372.04 4.228.086 5.262.124 5.6.167 5.272.167 4.258.178 2.48c-.985-.12-1.978-.174-2.97-.162a25 25 0 0 0-3.124.162c.1-.544.238-1.55.377-3.013l.38-5.224.38-6.613a260.95 260.95 0 0 0 .349-7.122l.208-6.982.078-6.07q0-7.8-.035-13.388-.045-5.574-.215-8.346h1.36l11.048 11.467 11.705 12.078q5.8 5.97 11.012 11.273 5.206 5.324 9.107 9.044V181.83q0-8.5-.133-16.578-.133-8.07-.55-15.2a12.61 12.61 0 0 0 2.892.41 12.87 12.87 0 0 0 2.707-.4l-.384 5.353-.42 7.62q-.228 4.057-.38 7.944l-.182 6.254v4.854l.05 5.763.173 11.7.035 4.577v2.68h-1.187q-9.74-10.78-20.752-22.1m78.052 19.143c-1.28.582-2.612 1.042-3.98 1.373l-5.206 1.106c-2 .323-4.004.486-6.02.486a40.2 40.2 0 0 1-12.361-1.832 26.22 26.22 0 0 1-9.8-5.55c-2.778-2.54-4.97-5.653-6.423-9.125-3.106-7.893-3.106-16.67 0-24.562a25.41 25.41 0 0 1 6.512-9.115 28.48 28.48 0 0 1 10.041-5.682A40.84 40.84 0 0 1 226.411 149a44.68 44.68 0 0 1 10.218 1.092 49.69 49.69 0 0 1 8.18 2.647 10.1 10.1 0 0 0-1.095 3.076l-.678 3.243-.508.16a17.97 17.97 0 0 0-2.381-2.181c-1.114-.886-2.302-1.676-3.55-2.363a23.31 23.31 0 0 0-4.582-1.9c-1.82-.53-3.706-.788-5.6-.77a27.22 27.22 0 0 0-9.264 1.544 19.69 19.69 0 0 0-7.465 4.733 22.04 22.04 0 0 0-4.956 8.111 38.89 38.89 0 0 0 0 23.267c1.045 3.03 2.736 5.8 4.956 8.112a19.77 19.77 0 0 0 7.455 4.736 27.09 27.09 0 0 0 9.264 1.541 20.86 20.86 0 0 0 5.642-.728 31.41 31.41 0 0 0 4.75-1.74 27.64 27.64 0 0 0 3.893-2.2q1.75-1.158 2.924-2.06l.344.33-.756 4.77a10.59 10.59 0 0 1-2.426 1.425M255.7 160.56l-.464-10.5 2.12.286a17.18 17.18 0 0 0 2.028.12c.678 0 1.356-.04 2.03-.12l2.118-.286-.458 10.5c-.144 3.432-.2 6.924-.2 10.5V185q0 5.346.2 10.536l.458 10.218c-1.288-.124-2.672-.167-4.147-.167s-2.858.043-4.15.167l.464-10.218q.216-5.2.225-10.536v-13.953a248.74 248.74 0 0 0-.225-10.5"/><path d="M306.406 184.715q-11.03-11.3-22.037-22.495l-.165 6.076-.08 10.372.04 4.228.08 5.262.124 5.6.172 5.272.167 4.258.172 2.48c-.98-.12-1.966-.173-2.952-.162-1.054-.01-2.108.043-3.155.162.12-.544.246-1.55.4-3.013q.2-2.178.38-5.224l.37-6.613.347-7.122.2-6.982.1-6.07q0-7.8-.04-13.388-.046-5.574-.216-8.346h1.356l11.058 11.467 11.695 12.078q5.792 5.97 11 11.273 5.222 5.324 9.133 9.044V181.83q0-8.5-.147-16.578c-.073-5.373-.27-10.44-.544-15.2a12.65 12.65 0 0 0 2.884.41 12.29 12.29 0 0 0 2.709-.41c-.116 1.2-.24 2.982-.385 5.353l-.414 7.62-.4 7.944c-.112 2.588-.164 4.68-.164 6.254v4.854l.038 5.763.08 6.038.1 5.672.033 4.577v2.68h-1.184q-9.74-10.78-20.752-22.1m38.778-24.147l-.463-10.5 2.112.286a17.49 17.49 0 0 0 4.065 0l2.118-.286-.458 10.5a258.99 258.99 0 0 0-.218 10.5V185q0 5.346.218 10.536l.458 10.218c-1.288-.124-2.687-.167-4.147-.167l-4.15.167.463-10.218c.134-3.46.212-6.972.212-10.536v-13.953c0-3.573-.078-7.06-.212-10.5m-219.67 39.523q-1.735-3.73-3.9-8.47l-4.6-10.266q-2.467-5.5-4.92-11.1-2.454-5.6-4.83-11.068-2.376-5.472-4.4-10.175h-1.612q-6.6 14.508-13.135 28.536-6.535 14.028-13.383 28.22a29.56 29.56 0 0 1 6.274 0c.728-2.482 1.83-5.64 3.3-9.446l1.346-3.417h28.65l1.23 2.848 2.234 5.512c.67 1.75 1.22 3.26 1.6 4.5.746-.1 1.498-.166 2.252-.167h4.493a15.42 15.42 0 0 1 2.244.167q-1.1-1.948-2.833-5.674zm-38.632-10.237q.653-1.578 1.33-3.186h0l.12-.278.878-2.1h.058l1.652-3.73c-.028 0-.06-.008-.094-.008l9.234-20.585 12.92 29.9z"/></svg>