<?xml version="1.0" encoding="utf-8"?>
<!-- Generator: Adobe Illustrator 23.0.2, SVG Export Plug-In . SVG Version: 6.00 Build 0)  -->
<svg version="1.1" id="Layer_1" xmlns:v="https://vecta.io/nano"
	 xmlns="http://www.w3.org/2000/svg" xmlns:xlink="http://www.w3.org/1999/xlink" x="0px" y="0px" width="356px" height="355px"
	 viewBox="0 0 356 355" style="enable-background:new 0 0 356 355;" xml:space="preserve">
<style type="text/css">
	.st0{fill-rule:evenodd;clip-rule:evenodd;fill:#231F20;}
	.st1{fill:#231F20;}
</style>
<g>
	<path class="st0" d="M173.8,257.8c4.1,0,11.6,1.3,11.6-3.6c0.1-4.8-7.5-3.7-11.6-3.7L173.8,257.8z M170.8,270.2l2.9,0.1l0-9.8
		c7.5-0.1,6.7,0,12.8,9.8l3.5,0c-0.1-0.8-4.2-7.7-6.7-9.5c-0.1-0.1-0.3-0.2-0.4-0.3c-0.4-0.3-0.1,0.1-0.4-0.4
		c7.1-1,6.7-7.7,4.1-10.3c-1.6-1.7-4.3-1.6-7.2-1.6c-1.9,0-7.3-0.2-8.7,0.1L170.8,270.2z"/>
	<path class="st0" d="M110.1,258.5c1.6,0.1,5.8,0.2,7.2,0c5.3-0.7,4.7-7.3,0.2-7.7c-1.7-0.2-5.6-0.2-7.3,0L110.1,258.5z
		 M107.1,270.2l3,0l0-9c3.2,0,7.6,0.4,10.2-0.7c2.4-0.9,4.2-3.7,3.6-7.3c-0.5-3.1-2.7-4.7-5.9-5c-2.2-0.2-8.8-0.3-10.8,0
		L107.1,270.2z"/>
	<path class="st0" d="M142,261.1l7.2,0c-0.1-0.7-3.3-9.6-3.7-10.1L142,261.1z M135.6,270.2h2.9c0.7-1.2,1.9-5.1,2.5-6.7h9.2l2.7,6.7
		h3.2c-0.1-1.2-1.6-4.2-2.1-5.4l-6.8-16.7h-3.1C143.5,249,135.7,269.5,135.6,270.2"/>
	<path class="st0" d="M228.1,262.9c-1.8,0-2.2,0.1-2.7,0.4c0,8.4,13.3,9.6,16.7,3.7c1.4-2.3,0.9-5.2-0.7-6.9
		c-3.6-3.7-11.7-2.3-12.3-5.9c-0.5-2.9,2.6-3.9,5.3-3.8c5.6,0.2,4,3.9,5.5,4.1l2.3-0.1c0.1-8.6-14.7-8.8-16-1.5
		c-0.5,3.1,1.3,5,3.2,5.9c3,1.5,13.4,2.2,10.1,7.2c-1.3,1.9-4.5,2.4-7,1.8C229.8,267.1,228.6,265.7,228.1,262.9"/>
	<polygon class="st0" points="205.9,270.2 208.9,270.2 208.9,248.2 205.9,248.1 	"/>
	<path class="st1" d="M146.4,206.3c1.8-2.1,4.9-2.3,6.9-0.5c0.2,0.1,0.3,0.3,0.4,0.4c1,1.1,1.5,2.6,1.5,4.7H145
		C144.9,208.9,145.4,207.4,146.4,206.3 M159,203.1c-2.3-2.7-5.3-4-9.2-4c-3.5,0-6.3,1.3-8.6,3.8c-2.3,2.5-3.4,6-3.4,10.5
		c0,3.7,0.9,6.8,2.6,9.3c2.2,3.1,5.6,4.6,10.1,4.6c2.9,0,5.3-0.7,7.2-2c1.9-1.4,3.3-3.3,4.2-5.9l-6.9-1.2c-0.4,1.4-0.9,2.3-1.7,2.9
		c-0.8,0.6-1.7,0.9-2.7,0.9c-1.5,0-3-0.6-4-1.8c-1.1-1.2-1.6-2.8-1.7-4.9h17.4C162.3,209.8,161.2,205.7,159,203.1 M126.7,226.6h-6.9
		v-26.9h6.4v3.8c1.1-1.8,2.1-3,3-3.6c0.9-0.6,1.9-0.9,3-0.9c1.6,0,3.2,0.5,4.6,1.4l-2.2,6.2c-1.2-0.8-2.2-1.2-3.3-1.2
		c-0.9,0-1.8,0.3-2.5,0.8c-0.7,0.5-1.2,1.5-1.6,3c-0.4,1.4-0.6,4.5-0.6,9V226.6z M107,226.6h-6.9v-26.9h6.4v3.8c1.1-1.8,2.1-3,3-3.6
		c0.9-0.6,1.9-0.9,3-0.9c1.6,0,3.2,0.5,4.6,1.4l-2.2,6.2c-1.2-0.8-2.2-1.2-3.3-1.2c-0.9,0-1.8,0.3-2.5,0.8c-0.7,0.5-1.2,1.5-1.6,3
		c-0.4,1.4-0.6,4.5-0.6,9L107,226.6z M87.8,210.9c-0.1-2.1-0.6-3.6-1.5-4.7c-1.8-2-4.9-2.2-6.9-0.3c-0.2,0.1-0.3,0.3-0.4,0.4
		c-1,1.1-1.5,2.7-1.5,4.6H87.8z M87.4,218.1l6.9,1.2c-0.9,2.6-2.3,4.6-4.2,5.9c-1.9,1.4-4.3,2-7.2,2c-4.6,0-7.9-1.5-10.1-4.6
		c-1.7-2.5-2.6-5.5-2.6-9.3c0-4.5,1.1-8,3.4-10.5s5.1-3.8,8.6-3.8c3.9,0,7,1.3,9.2,4c2.3,2.7,3.3,6.7,3.2,12.2H77.3
		c0.1,2.1,0.6,3.8,1.7,4.9c1,1.1,2.5,1.8,4,1.8c1,0,2-0.3,2.7-0.9C86.5,220.4,87.1,219.4,87.4,218.1 M58.2,199.7h6.9v26.9h-6.9
		L58.2,199.7z M58.2,189.5h6.9v6.6h-6.9L58.2,189.5z M34,212.7c0,3,0.6,5.3,1.8,6.7c1.2,1.4,2.6,2.2,4.3,2.2c1.6,0,2.9-0.7,4-2
		c1.1-1.3,1.6-3.5,1.6-6.5c0-2.8-0.6-4.9-1.7-6.3c-1.1-1.4-2.5-2-4.1-2.1c-1.7,0-3.1,0.7-4.2,2C34.5,208.1,34,210.1,34,212.7
		 M27.1,199.7h6.5v4c0.8-1.4,2-2.5,3.4-3.3c1.4-0.9,3.1-1.3,4.8-1.3c3,0,5.6,1.2,7.7,3.7s3.2,5.9,3.2,10.3c0,4.5-1.1,8-3.2,10.5
		s-4.7,3.7-7.8,3.7c-1.4,0-2.7-0.3-3.9-0.9c-1.2-0.6-2.4-1.6-3.7-3v13.6h-6.9V199.7z M189.4,199.1c-3.9,0-7,1.2-9.3,3.7
		c-2.3,2.5-3.4,5.9-3.4,10.4c0,4.4,1.1,7.8,3.4,10.3c2.3,2.5,5.3,3.7,9.2,3.7c3.4,0,6.1-0.8,8.1-2.5c2-1.6,3.4-4.1,4.1-7.3l-6.8-1.2
		c-0.3,1.9-0.9,3.2-1.8,4c-0.8,0.8-1.9,1.2-3.2,1.2c-1.8,0-3.2-0.7-4.2-2c-1-1.3-1.6-3.6-1.6-6.8c0-2.9,0.5-4.9,1.5-6.2
		c1-1.2,2.4-1.8,4.1-1.8c1.3,0,2.4,0.4,3.2,1.1c0.8,0.7,1.3,1.8,1.6,3.2l6.8-1.3c-0.8-2.9-2.2-5-4.1-6.5
		C195.1,199.8,192.6,199.1,189.4,199.1 M322.9,226.6H316v-13.8c0-2.9-0.2-4.8-0.4-5.6c-0.3-0.8-0.8-1.5-1.4-2
		c-0.7-0.5-1.6-0.7-2.4-0.7c-1.2,0-2.3,0.3-3.2,1c-0.9,0.7-1.6,1.6-2,2.7c-0.4,1.1-0.5,3.2-0.5,6.2v12.2H299v-26.9h6.4v4
		c2.3-3,5.2-4.6,8.6-4.6c1.4,0,2.9,0.3,4.2,0.8c1.3,0.6,2.2,1.3,2.9,2.2c0.7,0.9,1.1,1.9,1.4,3c0.3,1.1,0.4,2.7,0.4,4.8L322.9,226.6
		z M285,199.7h6.9v26.9H285V199.7z M285,189.5h6.9v6.6H285V189.5z M259.6,212.6c0,2.9,0.4,5,1.2,6.2c1.1,1.9,2.7,2.8,4.7,2.8
		c1.6,0,3-0.7,4.1-2.1s1.7-3.5,1.7-6.3c0-3.1-0.5-5.3-1.6-6.7c-1.1-1.4-2.5-2-4.2-2c-1.6,0-3,0.7-4.1,2
		C260.2,207.9,259.6,209.9,259.6,212.6 M278.2,226.7h-6.5v-4c-1.1,1.5-2.3,2.7-3.8,3.4c-1.4,0.7-2.9,1.1-4.4,1.1
		c-3,0-5.6-1.2-7.7-3.7c-2.1-2.5-3.2-6-3.2-10.4c0-4.6,1-8,3.1-10.4c2.1-2.4,4.7-3.6,7.9-3.6c2.9,0,5.5,1.3,7.6,3.8v-13.4h6.9
		L278.2,226.7z M241.1,226.7h-6.9v-26.9h6.4v3.8c1.1-1.8,2.1-3,3-3.6c0.9-0.6,1.9-0.9,3-0.9c1.6,0,3.2,0.5,4.6,1.4l-2.1,6.2
		c-1.2-0.8-2.3-1.2-3.3-1.2c-0.9,0-1.8,0.3-2.5,0.8c-0.7,0.5-1.2,1.5-1.6,3s-0.6,4.5-0.6,9L241.1,226.7z M220.8,213.7
		c-1.4,0.4-2.8,0.8-4.2,1.1c-1.9,0.4-3.2,0.8-3.8,1.2c-0.9,0.7-1.4,1.5-1.4,2.5c0,1,0.4,1.9,1.1,2.6c0.7,0.7,1.6,1.1,2.8,1.1
		c1.3,0,2.4-0.4,3.6-1.3c0.8-0.6,1.4-1.4,1.7-2.4c0.2-0.6,0.3-1.8,0.3-3.5L220.8,213.7z M211.5,207.9l-6.3-1.2
		c0.7-2.6,1.9-4.5,3.6-5.8c1.7-1.3,4.3-1.9,7.7-1.9c3.1,0,5.4,0.4,6.9,1.1c1.5,0.8,2.6,1.7,3.2,2.9c0.6,1.2,0.9,3.3,0.9,6.4
		l-0.1,8.3c0,2.4,0.1,4.1,0.3,5.2c0.3,1.3,0.7,2.5,1.3,3.6h-6.9c-0.2-0.5-0.4-1.2-0.7-2.1c-0.1-0.4-0.2-0.7-0.2-0.8
		c-1.1,1.1-2.4,2-3.8,2.7c-1.4,0.6-2.8,0.9-4.3,0.9c-2.7,0-4.8-0.7-6.4-2.2c-1.6-1.5-2.3-3.4-2.3-5.7c0-1.4,0.3-2.8,1.1-4.1
		c0.7-1.2,1.7-2.1,3-2.7c1.3-0.6,3.1-1.2,5.5-1.7c3.2-0.6,5.5-1.2,6.7-1.8v-0.7c0-1.4-0.3-2.3-1-2.9c-0.7-0.6-1.9-0.9-3.7-0.9
		c-1.2,0-2.2,0.3-2.9,0.8C212.5,205.8,211.9,206.7,211.5,207.9"/>
	<path class="st0" d="M135.3,76H193c30.3,2,35.2,50.2,3.1,60.7c-17.2,4.5-25.1-5.5-25.1-13c0-11.2,8.6-12.7,11.2-11.8
		c8,2.8,3.6,12.3-2.1,10.5c2.3,4.4,9.5,4.1,12.7,0.5c8.4-9.5-0.8-19.7-12.4-19.4c-19.8,1-22.2,19.9-22.1,24.2
		c-0.2,23.6,27.4,41.1,56.3,40.6c1.7,0.5,1.4,2.5,0,2.5h-79.3V76z"/>
</g>
</svg>
