<svg xmlns="http://www.w3.org/2000/svg" width="356" height="355" xmlns:v="https://vecta.io/nano"><path d="M169.413 175.128h-.86l.18 2.487c.23-.037.645-.066.645-.118l.035-2.37m10.954 18.222c1.018.242.942-.75.935-1.324a5.11 5.11 0 0 0-.569-1.567l-.367.236zm-3.784-18.325l.6.1.45-2.766-.54-.1c-.714.824-1.26 1.677-.513 2.766m-23.422 8.7l.444-.06v-5.8l-.444.015zm-2.55-19.2c-.55-.525-1.142-1.007-1.767-1.442-.1-.066-.84.56-.8.75a15.24 15.24 0 0 0 .84 2.324l1.725-1.633m9.992 17.855l.8.022.242-3.855c.007-.235-.4-.508-.672-.7-.04-.03-.457.323-.464.5l.1 4.024m12.445-5.966c-.533.56-1.226.964-1.212 1.34a6.94 6.94 0 0 0 .659 2.464.98.98 0 0 0 .99.236 1.32 1.32 0 0 0 .368-1.067c-.153-.875-.45-1.714-.8-2.972m-27.285-5.964c-1.5 1.177-1.476 2.7-.23 4.385l1.38-1.847-1.15-2.538m24.238 34.362l-.333-3.023a1.43 1.43 0 0 0-.159-.611 6.24 6.24 0 0 0-.652-.721c-.18.265-.5.53-.512.8-.088 1.102-.085 2.2.007 3.3.042.4.576.72.887 1.074l.763-.83m-16.5-36.768c.367-2.25.1-3.4-.748-3.207-.682.177-1.24.67-1.5 1.324-.2 1.265.845 2.016 2.252 1.883m5.135 10.358c-.173-.33-.277-.78-.547-.956-.153-.1-.652.154-.846.4a23.04 23.04 0 0 0-1.718 2.421 1.18 1.18 0 0 0 .048.963c.083.147.54.177.784.1a2.99 2.99 0 0 0 2.279-2.913m4.386-3.487l.936-.258a14.92 14.92 0 0 0 1.067 2.156c.125.184.748-.014 1.136-.044-.07-.92-.223-1.83-.457-2.722a1.28 1.28 0 0 0-1.2-.537 7.16 7.16 0 0 0-1.483 1.405m-15.2 4.15c1.386.493 1.2 1.677 1.22 2.76.02 1.332-.174 2.715.928 4v-8.9l-2.148 2.133m-1.973-19.32l-.367.015a20.54 20.54 0 0 1-1.11 3.76 3.08 3.08 0 0 0 .152 3.119c.25.463.846.706 1.3 1.052a4.79 4.79 0 0 0 .582-1.47c-.043-.843-.133-1.683-.27-2.516l-.277-3.958m11.26 13.014l12.924-.03a7.44 7.44 0 0 0 2.751-.772 6.83 6.83 0 0 0 2.883-9.063c-.9-1.97-2.838-3.25-5-3.28-3.624-.015-7.242-.132-10.86-.287a19.52 19.52 0 0 1-3.028-.655l-.977.773c.173.4.32.684.422.978.32.9.956 1.84.846 2.678a21.46 21.46 0 0 1-1.3 3.73c-.083.242.146.86.264.868 1.434.125 1.122 1.17 1.08 2.12s-.007 1.912-.007 2.942m-17.912 10.295c.575-.1 1.247-.463 1.712-.272 1.385.574 1.78-.75 2.5-1.347.25-.2.23-1.044.055-1.464-.1-.257-.74-.257-1.365-.44l.4 1.442c-.13.05-.263.1-.4.17l-.8-2.487-.8.662c-.47-.64.346-1.523 1.088-1.22.215.1.423.206.54.265 2-1.957 1.5-4.436 1.5-6.783l-.028-21.18c-.02-1.567.506-2.12 1.844-2.12.4 0 .8-.06 1.213-.05l29.776.28c7.955.17 13.45 6.393 13.77 14.8.3 7.908-3.243 11.594-8.828 14.014-.4.17-.8.375-1.372.662l1.143.677c-1.3.537-1.393 1.706-.146 3.2.963-1.074.166-2.185.1-3.237a12.16 12.16 0 0 1 8.433 6.143c5.53 9.8 1.2 22.452-11.378 24.968a29.77 29.77 0 0 1-3.59.56c-.6-.05-1.214-.174-1.795-.368-.32-.073-.756-.28-.963-.133-1.816 1.266-3.8.338-5.7.545-.215.03-.644-.4-.7-.67-.713-3.42-2.682-6.334-3.486-9.7-.05-.2-.05-.412-.117-1.023l3.236.442c.187.022.38.22.554.2a67.82 67.82 0 0 0 7.2-1.295c3.1-.868 4.657-3.127 4.815-6.378.167-3.4-1.074-5.547-4.053-6.967-.735-.346-1.53-.53-2.273-.868-.846-.383-1.663-.846-2.723-1.4l-.52 1.214c-3.5-.036-7.137-.647-10.865.3a19.58 19.58 0 0 1-.02 2.207 5.9 5.9 0 0 1-.506 1.331 7.34 7.34 0 0 1-1.49-.8c-.277-.228-.353-.72-.582-1.228-1.275 1.4-1.3 2.9-.672 4.87.187-.574.2-.927.367-1.052.534-.42 1.178-1.1 1.663-1.015.63.28 1.074.863 1.178 1.545.027 2.443-.16 4.892-.25 7.334-.028.765-.264 1.574.963 1.758.437.06.74 1.1 1.1 1.714l-.36.287-1-.243c.007.2-.035.442.028.478 1.282.714 1.067 2 1.122 3.193l.3 5.812c-2.87 0-5.57.022-8.274-.044-.25-.008-.568-.574-.714-.942a5.42 5.42 0 0 1-.187-1.28h-.478l-.173 2.273c-1.42 0-2.828-.06-4.227.022-1.1.066-1.365-.44-1.358-1.515l.013-13.647c0-3.693 0-3.693-3.277-3.7l-.07-.442c.572-.12 1.154-.185 1.74-.2 1.262.133 1.72-.375 1.628-1.714-.1-1.442-.027-2.9-.02-4.333 0-1.14-.374-1.677-1.566-1.4a12.88 12.88 0 0 1-2.612.213c-.076 0-.16-.427-.243-.654zm-111-4.055a6.56 6.56 0 0 0-.679.727c.568.673 1.213 1.3 1.836 1.92.222-.325.637-.65.637-.984.007-.908-.3-1.7-1.794-1.663m10.242 3.485l-.007-1.317c-.035-.443-.194-.887-.187-1.33.028-1.746-.333-2.2-2.168-2.647.083 2.626 1.08 5 2.363 5.294m21.82-4.566c-2.827 3.035-5.8 5.655-10.06 6.43l-.707-1.65c-.346.984-.187 2.162-1.7 2.086-1.04-.05-1.442-.3-1.4-1.372.04-1.1-.1-2.2-.18-3.714l-2.224 1.476 1.5 3.444h-7.172c-.05 0-.1-.028-.145-.02-2.086.347-3.347-.256-3.292-2.64.014-.367-.512-.742-.845-1.192-.327 1.23-.776 2.426-1.338 3.568-.492.8-2.176.32-2.917-.485a15.73 15.73 0 0 1-2.91.756c-1 .055-1.22-.548-.866-1.518.25-.714.3-1.48.18-2.224-.042-.25-1.026-.6-1.386-.436-.4.333-.603.848-.534 1.365.617 2 .056 2.848-2.037 2.855-.707.007-1.414.02-2.114-.02-.492-.028-.984-.132-1.593-.222l.048-8.6a1.35 1.35 0 0 1 .943-.936l16.8-.055a48.5 48.5 0 0 0 7.1-.319c3.506-.54 5.6-2.75 6.195-6.292.825-4.94-2.9-8.12-6.48-8.7-7.082-1.123-14.2-.347-21.28-.554-3.568-.1-3.575-.02-3.575-3.6 0-1.7.04-3.43-.014-5.14-.027-.95.277-1.386 1.3-1.372l30.233.624c6.507.27 11.655 5.322 12.792 12.307.492 3.035-.083 6.23.25 9.313.284 2.6-.748 4.65-1.788 6.8a4.5 4.5 0 0 1-1.164 1.483l.408-1.44"/><path d="M112.12 164.207l-2.217.854 1.905 1.333.312-2.187m1.538 38.726l.6-.03-.43-2.716c-.042-.155-.755-.1-1.407-.177l1.226 2.923m8.08-31.12a22.8 22.8 0 0 0-1.926-1.487c-.063-.044-.75.633-.694.84.28.782.615 1.542 1.005 2.275l1.615-1.627m-1.5-4.2l.478-.162c.194-3.048-.02-3.7-1.968-4.586l1.5 4.75m-1.254 18.6c1.518.766 1.067 2.2 1.24 3.394l.548 3.534.783-.1-.436-8.445c-.38.118-.5.118-.57.184l-1.566 1.443m-1.96-19.7l-.43.118a34.35 34.35 0 0 1-1.178 3.858c-.6 1.173-.473 2.576.3 3.637a5.23 5.23 0 0 0 1.164.95c.27-.493.727-.964.77-1.473a20.85 20.85 0 0 0-.042-3.607c-.1-1.17-.388-2.326-.6-3.482m-3.885 18.37c-.672.206-1.44.692-2.106.574-.6-.1-1.5-.876-1.5-1.4l-.076-8.945 3.7 2.2c.623-1.443-.083-1.98-.942-2.253-2.127-.663-2.758-2.37-2.772-4.425l-.05-20.246c-.007-1.023.326-1.436 1.3-1.436q14 .033 27.974.007c.963-.007 1.42.353 1.324 1.406a2.61 2.61 0 0 0 .028.957c.388 1.347-.3 1.583-1.324 1.53-.395-.015-.8.044-1.462.088l.027 6.23c.1 1.576-.436 2.017-1.878 1.973-3.527-.1-7.054-.03-10.6-.03h-1.836l-.02 9.446a14.33 14.33 0 0 1-.409 2.106 2.52 2.52 0 0 0-.014 1.09c1.344 3.96.45 8.047.6 12.074a32.85 32.85 0 0 1-.153 3.968c-.125 1.414-.36 2.82-.582 4.454.942.376.852 1.56.832 2.827l.014 11.4c.034 1.583-.48 2.024-1.912 1.965-2.5-.118-5.03-.037-7.678-.037l-.332-2.224c-.076-.03-.153-.05-.23-.074l-.527 2.2h-2.868l-.263-7.4.028-12.207c0-.368-.083-.9.1-1.082.956-.964 1.358-1.818-.1-2.65-.062-.037.035-.4.1-.913 1.13 1.178 2.113 2.157 3.007 3.218.1.118-.256.72-.443 1.074-.284.53-.866 1.046-.866 1.568 0 1.318 1.115 1.767 2.05 1.8 1.143.03.846-1 .735-1.8-.083-.6-.063-1.185-.1-1.907l-.776-5.132m127.86 9.506l.423.08.34-2.46-1.27-.08.506 2.46m3.166-22.016a21.09 21.09 0 0 0-.831 3.063 3.81 3.81 0 0 0 .513 1.892c.07.133.852.1 1.053-.1.38-.405-.243-4.212-.735-4.852m-2.418 12.812l-.693.78a4.77 4.77 0 0 0-.326 1.642 1.3 1.3 0 0 0 .956.876c.3.008.88-.62.86-.928-.1-1.576-.38-3.13-.6-4.8-1.025.515-1.94.95-2.432-.618-.1-.272-.915-.287-1.4-.42l-.284.56q1.965 1.458 3.93 2.908m-7.283-36.316h13.616c.8 2.746.464 3.387-2.12 3.888l-.076 2-.048 33.105a55.83 55.83 0 0 1-.638 7.665c-.22 1.717-.72 3.386-1.483 4.94-.885 1.65-2.048 3.134-3.437 4.4a28.21 28.21 0 0 1-4.636 2.916c-4.76 2.82-10.013 2.26-15.155 2.452-.922.037-1.386-.34-1.38-1.4l.02-11.892c.028-.26.084-.517.166-.766a12.61 12.61 0 0 0 2.834 1.635 18.34 18.34 0 0 0 4.837.692c1.3-.008 2.66-.6 2.412.825-.374-1.326 1.282-1.915 2.57-2.8 1.328-.927 2.133-2.43 2.17-4.05.187-3.682.194-7.37.23-11.052l.007-11.67 3.8 1.326c.076-.133.16-.258.236-.4-.243-.346-.478-.7-.735-1.03-.713-.92-1.476-1.8-2.134-2.754-.173-.258-.007-.76-.027-1.14-.02-.45.02-1.245-.138-1.288-1.5-.486-.88-1.7-.88-2.68l-.007-11.1z"/><path d="M76.944 201.92l-.506-.2a7.2 7.2 0 0 0-1.233 1.892c-.1.352.5.94.783 1.423.32-.323.825-.6.908-.983.092-.7.1-1.428.048-2.142m2.654-29.174h.055a5.96 5.96 0 0 0-.021-1.115.74.74 0 0 0-.4-.536c-.166-.036-.554.184-.56.3a17.89 17.89 0 0 0 .04 3.044c.035.286.645.492 1 .734l-.02-1.16-.083-1.27m-3.957 11.65l.492-.022-.034-4.5c-.007-.235-.4-.447-.63-.675-.173.213-.527.447-.5.623l.672 4.57m.16 11.348c.928-1.5.748-2.648-.652-3.565-.277-.176-.72-.073-1.088-.1 0 .382-.138.858.02 1.137.513.88 1.137 1.694 1.72 2.53m3.8-27.267c.16-2-.166-2.648-1.38-2.545-.422.03-1.136.543-1.15.858-.035 1.123 1.17 1.885 2.53 1.687m-.146 35.256l-.665.733c2.6.726.547 2.8 1.5 4.116 1.414-1.555 1.878-3.484.977-4.512-.333-.382-1.2-.235-1.823-.337m4.927-35.813l-.506.14c-.27 1.408-.655 2.792-1.15 4.137a4.76 4.76 0 0 0 .256 4.475c.326.474.866.754 1.44.748.32-.044.755-.866.77-1.357a41.52 41.52 0 0 0-.1-5.076c-.162-1.038-.4-2.062-.707-3.066m-4.005 11.98c.16-.418.52-.954.4-1.13-.4-.616-.915-1.452-1.517-1.592-1.837-.44-2.17-2.062-2.765-3.47-.54-1.284-2.294-2.377-.6-4.145.23-.25-.277-1.467-.665-2.076-.14-.22-1.248-.132-1.386.14a3.72 3.72 0 0 0-.076 1.746c.013.257.243.58.16.763-.83 1.8-.582 3.675-.63 5.6-.034 1.562.3 1.95 1.518 1.893a4.15 4.15 0 0 1 3.437 1.24 7.39 7.39 0 0 0 2.127 1.042m-1.1 12.676a17.85 17.85 0 0 0-.95 3.184c-.118 1.284.8 1.885 2.252 1.658 1.178-.184 1.012-1.07.908-1.944l-.77-6.785-.208-1.5c-1.047.4-2.107 1.188-2.855.94s-1.095-1.607-1.7-2.4c-.3-.312-.685-.504-1.1-.536a10.27 10.27 0 0 0-2.03.337l6.472 7.05m-10.276-33.5c.353-.33.658-.83 1.067-.953 1.4-.433 1.448-1.5 1.42-2.744l-.028-8.8c-.014-1.04.34-1.4 1.324-1.394q7.183.066 14.372 0c.908-.015 1.254.36 1.407 1.225.1.587.637 1.306.457 1.672-.3.595-.617 1.5-1.677 1.255-1.26-.294-1.628.4-1.622 1.7l.02 31.184-1.5-1.144-1.338 1.18 1.1 3.763 1.074-2.48.506.2v20.034l-.908-.448c-.1.97-1.005 2.017.645 2.575.263.1.388 1.012.388 1.548.034 3.6.125 2.927-2.668 2.97h-6.54l-.666-1.812-.672 1.636h-4.004c1.372-1.064 2.08-1.907.457-2.883-.2-.125-.145-.8-.145-1.218q-.02-2.883-.007-5.766c.007-1.072-.118-2.07.825-3.015.443-.447.076-1.8.076-3.1.763-.58 1.393-1.518.077-2.78-.208-.2-.166-.843-.055-1.218a2.36 2.36 0 0 0-.547-2.619 1.04 1.04 0 0 1-.118-.953c1.552-1.724.236-3.463.076-5.186-.07-.785-.3-1.555-.318-2.333L71.3 163.19c-.008-1.482.16-2.964.242-4.335l-2.266.777-.27-.55m135.536 10.69l.645-.17a14.14 14.14 0 0 0-.423-2.114c-.05-.133-.727-.015-1.407-.015l1.185 2.3m-1.094 5.74l1.663.523.263-3.16-.5-.133-1.427 2.77m-.354 19.884c-1.1-.45-.527-2.3-2.086-2.314l.423 3.92 1.663-1.606m-2.044-19.287c-.18-1.046.783-2.2-.547-2.86-.243-.125-1.15.48-1.192.825-.133.516-.006 1.065.34 1.47s.87.615 1.4.563m2 12.4l.4.353c2.113-.515 2.772-1.56 1.947-3.72l-2.35 3.367m1.892 16.12c-.5-.23-1.137-.317-1.476-.7-2.2-2.732-3.602-6.035-4.012-9.526-1.088-6.534-.16-13.143-.617-19.707-.048-.73-.236-1.45-.388-2.35.05-.1.47-.494.47-.9l-.1-20.68c-.027-1.576.3-2.15 1.885-2.107 4.38.1 8.766.037 13.152.03 1.026 0 2.024-.17 1.96 1.555-.055 1.4.035 2.667-1.85 2.328a2.12 2.12 0 0 0-.589.14c-.02.538-.07 1.112-.07 1.68l-.027 14.63a14.12 14.12 0 0 1-.437 2.284 1.71 1.71 0 0 0-.034.891c.77 1.967.54 2.328-1.5 2.15 0 .148-.055.36.007.42 1.843 1.65 1.24 3.9 1.254 5.975 0 .324-.575.6-.762.972a4.13 4.13 0 0 0-.52 1.489c1.38.965 1.206 2.482 1.275 3.868.076 1.532.014 3.072.014 4.6l-2.127.17c.333.5.45.9.68.995 1.65.656 1.517 2.085 1.5 3.55l-.014 13.128c-2.828-1.576-6.4-1.112-7.3-5.253a15.03 15.03 0 0 0-.38.376M265.4 163.02c-1.385 1.753-1.095 2.925.506 3.333l-.506-3.333m-3.9 7l.485 4.83.513-.07c-.146-1.5.762-3.153-1-4.76m3.72-11.718l-2.266.6 2.155 2.1.513-.34-.4-2.35m-2.924 26.6c1.074-1.324.118-2.148-.575-2.93-.242-.27-.845-.23-1.3-.326l-.263.457 2.127 2.8m-3.853 1.9c1.268-1.15.8-2-.132-2.827 1.26-.755 2.093-1.53.735-2.82-.187-.18-.132-.672-.1-1.012.27-2.224-.457-2.84-2.9-2.273a2.96 2.96 0 0 0 .52.852c1.156.87 1.613 2.392 1.13 3.756a9.1 9.1 0 0 0-.041 2.973c.05.443.478.845.776 1.35m-5.544-12.626v-7.67l1.06 1.76.208-2.058 1.116.644a1.44 1.44 0 0 0 2.273-.651c.083-.2.083-.623-.02-.686a15.2 15.2 0 0 0-3.077-1.531c-1.108-.312-1.7-.6-1.663-1.954.1-3.93.07-7.858.014-11.794-.014-1.1.256-1.476 1.434-1.455 4.442.055 8.877-.007 13.312-.035.866-.007 1.712-.02 1.518 1.22-.152.97.693 2.57-1.407 2.4-1.053-.1-1.1.562-1.1 1.344l.007 15.106c-1.614-.374-2.785-.956-3.36-2.426-.283-.697-.603-1.38-.956-2.044-.43-.838-1-1.573-.1-2.564.25-.284-.166-1.275-.457-1.85a1.3 1.3 0 0 0-1.164.028c-.182.45-.267.935-.25 1.42l-.25 1.988a10.52 10.52 0 0 0-.173 2.176c.07.7.887 1.386-.1 2.03.312.4.672 1.2.93 1.164 1.934-.236 3.312.818 4.816 1.726.742.45 1.144.86 1.1 1.746a38.19 38.19 0 0 1-.257 4.636 2.26 2.26 0 0 1-1.656 1.365 2.24 2.24 0 0 1-1.857-1.08c-.478-1.815-1.546-1.74-3.313-1.143l6.334 6.534-.77.93c-.95 1.15-.665 2.2.6 2.917a2.15 2.15 0 0 1 .8 1.476c.028.208-.762.783-1.13.74a24.45 24.45 0 0 1-3.257-.783c-1.656 1.87-4.24.485-6.55.74-.187.02-.547-.637-.658-1.025-.23-.8-.347-1.63-.506-2.446-.18-.042-.354-.076-.527-.1a5.1 5.1 0 0 0-.422 1.351c-.007.43.32.86.346 1.3a2.6 2.6 0 0 1-.339.963c-.2-.3-.568-.582-.568-.88-.082-2.558.015-5.12.3-7.664l.873 1.822c1.337-1.857.257-2.772-.533-3.84l3.56-2.03 1.005 1.684c.118-1.35 1.47-2.2.118-3.347-.166-.14.124-.755.1-1.137-.048-.492-.062-1.13-.367-1.406-.23-.215-.887.035-1.35.07l.312 1.47c.02.1.034.194.02.118-.915 2.758-2.516 1.3-3.985.748m58.7-7.627l-.492-3.388c-1.372 1.254-1.17 2.453.492 3.388m-3.893 8.736c.985-2.48.72-4.248-.4-4.8l.014 2.176c.063.735.208 1.47.388 2.633m1.525-16.555l-.34.56 1.96 1.483a4.99 4.99 0 0 0 .173-1.573c-.3-1.344-1.122-.65-1.794-.47m-1.26 26.117c.97-1.13.25-1.982-.485-2.73-.27-.27-.832-.25-1.255-.36.042.4-.042.894.16 1.206a21.06 21.06 0 0 0 1.58 1.885m-3.6-.47a10.11 10.11 0 0 0 .831-2.474 7.39 7.39 0 0 0-.464-2.64c-.218-.588-.613-1.094-1.13-1.45-.4-.263-1.053-.16-2.128-.277l.985 1.5c.477.713.826 1.503 1.032 2.335.125 1.234-.16 2.494-.14 3.742a3.81 3.81 0 0 0 .6 1.414c.028.034.6-.1.6-.194a6.99 6.99 0 0 0 .042-1.663c-.014-.194-.3-.367-.235-.3m7.78-15.536c-1.656-.5-2.9-1.088-3.36-2.73a9.3 9.3 0 0 0-1.012-2.016c-.45-.77-.762-1.393-.013-2.266.263-.312-.118-1.282-.388-1.864-.076-.173-1.067-.2-1.143-.055-.172.5-.258 1.024-.256 1.552-.014.14.125.32.076.437-.742 1.718-.416 3.54-.6 5.315-.1 1.116.14 1.725 1.088 1.56 2.142-.374 3.417 1.206 5.038 1.975a1.23 1.23 0 0 1 .527.935 36.6 36.6 0 0 1-.1 5.239 2.11 2.11 0 0 1-1.6 1.261c-.65.034-1.774-.485-1.92-.984-.478-1.7-1.428-1.96-3.1-1.323 1.3 2.855 4.532 3.984 5.973 6.826l-.658.734c-.93 1.095-.617 2.2.616 2.93a2.1 2.1 0 0 1 .735 1.5c.02.222-.77.755-1.15.714-1.06-.173-2.106-.418-3.132-.735-1.642 1.74-4.178.47-6.465.7-.242.028-.686-.75-.838-1.213-.212-.83-.374-1.672-.485-2.522-2.044 1.1.22 2.723-1.012 3.75-.735-2.7-.3-5.46-.47-8.184l.52-.4.617 1.892.658-.457c0-.658.236-1.442-.042-1.94-.887-1.628.007-2.293 1.283-2.862l1.213-.506.845 1.414c.5-1.185 1.24-2.148.4-3.4-.14-.208-.056-.56-.118-.832a5.88 5.88 0 0 0-.52-1.614 1.88 1.88 0 0 0-1.136.222 8.59 8.59 0 0 0 .256 1.871c-.762 2.05-2.238 1.455-3.86.2v-7.394l.984 1.7.277-2 1.074.6a1.47 1.47 0 0 0 2.279-.693c.083-.194.062-.6-.05-.665a15.6 15.6 0 0 0-3.084-1.538c-1.04-.312-1.635-.6-1.607-1.864.076-3.978.048-7.962.014-11.947-.014-1.02.27-1.4 1.372-1.386l13.312-.04c1-.014 1.72.124 1.573 1.365-.118.984.506 2.446-1.442 2.252-1.115-.118-1.185.575-1.185 1.42l.007 13.3z"/><path d="M286.502 208.67l.526-.152-.8-2.682-.485.14c-.243 1.04-.388 2.05.748 2.7m-21.163-4.948l-.3.54 1.864 1.3c.187-.464.638-1.032.506-1.38-.423-1.116-1.3-.686-2.065-.464m5.322-1.206l-.6.083c-.158.918-.248 1.847-.27 2.78.014.367.554.714.852 1.074.2-.2.582-.416.56-.6l-.548-3.347m2.814 5.315l.34 2.578c-3.486 0-7.137.014-10.8-.035-.332 0-.658-.45-.818-.575a14.36 14.36 0 0 1-2.183.582c-.804.103-1.618.1-2.42-.035a1.17 1.17 0 0 1-.734-.838q-.083-4.314-.007-8.62c.007-.3.4-.866.6-.86 1.746.076 3.652-.72 4.913.638l3.326-.9.208 1.906a5.71 5.71 0 0 1 .41.1l.492-1.7h7.262l.43 1.3h.326l.34-1.337 6.16-.014c.42.03.837-.075 1.192-.3 1.26-1.164 2.114-.977 2.66.68.125.367.27.734.436 1.17 1.255-.5 1.5-1.324.866-2.5l8.807.02a1.06 1.06 0 0 1 .776.52 2 2 0 0 1-1.808 3 1.5 1.5 0 0 0-.346.1l-.915 7.88-6.645-.582c-.582-.034-1.17.367-1.76.388a47.01 47.01 0 0 1-4.837-.02 4.09 4.09 0 0 1-1.476-.638c-1.108.208-2.23.776-2.9.444s-.852-1.58-1.247-2.425l-.658.076m56.954-7.262c-1.012 2.224-.935 2.633.4 3.1l-.4-3.1m-2.224 8.08l.554-.215-.9-2.57-.45.16c-.152 1-.43 2.05.8 2.626m-21-5.322l-.485.866 1.815 1.372.644-1.352-1.975-.887m5 3.187c1.005-.943.8-2.924-.6-4.172.235 1.552-.84 2.966.6 4.172m-8.336 3.208a11.1 11.1 0 0 1-2.016.652 9.45 9.45 0 0 1-2.578-.049 1.13 1.13 0 0 1-.679-.887q-.083-4.23 0-8.475c.007-.332.444-.95.66-.942 1.7.062 3.555-.672 4.823.637l3.4-.95.1 2.05.464.05.464-1.767h7.228l.43 1.323.34.014.464-1.428h5.072c.935 0 1.87.457 2.66-.72a1.2 1.2 0 0 1 1.988.693c.16.554.388 1.1.582 1.642l.555.07.894-2.557 6.77.007a3.45 3.45 0 0 1 .45.09c.6.083 1.67.02 1.746.263a6.9 6.9 0 0 1 .1 2.536c-.014.208-.458.485-.742.548a11.56 11.56 0 0 1-1.754.118 32.14 32.14 0 0 1-.041 4.1c-.23 1.148-.57 2.27-1.012 3.354-.1.164-.273.27-.465.284l-5.523-.257c-.526-.014-1.053.25-1.58.263-1.864.035-3.735.07-5.592-.02-.458-.028-.894-.52-1.115-.658-1.074.222-2.218.825-2.862.485-.693-.367-.928-1.615-1.365-2.48l-.513.1.23 2.606c-3.48 0-7.1.02-10.727-.035-.34-.007-.68-.506-.853-.645m-277.37-.822a2.06 2.06 0 0 0-.79-2.834 2.59 2.59 0 0 0-.921-.132c0 .36-.146.818.02 1.053a23.99 23.99 0 0 0 1.69 1.913m-.942-14.42l.617 4.913c1.025-2.245.734-4.3-.617-4.913m-3.652 13.6c2.232-.894 2.224-.943 1.3-2.73a2.08 2.08 0 0 1 .035-1.261c.32-1.414-.062-1.982-1.47-2.12l-1.3-.173-.325.3a6.19 6.19 0 0 0 .887 1.2c.943.8 1.7 1.518.922 2.9-.25.437-.042 1.136-.042 1.892m1.643-7.97l6.4 6.555c-1.573 1.954-1.635 2.46-.423 3.645h-5.6l-1.58-1.767-.978 1.843h-1.15c-1.63-.007-1.76-.27-1.664-1.843a52.5 52.5 0 0 0-.013-5.627c-.042-.852.027-1.483.907-1.816.6-.235 1.2-.534 1.878-.84L22 201.4l.4.063.36-2.64c.02-.4-.5-.928-.367-1.192.353-.707.457-1.3-.333-1.615-.374-.146-.9.1-1.365.166l.408 1.912-.83.6c-.437.27-.9.485-1.352.728a5.61 5.61 0 0 1-.429-1.358l-.028-4.08c-.035-.943.374-1.282 1.255-1.227l7.227.478c.526.056 1 .617 1.5.894l2.585 1.247-.264-2.55c.534-.076 1.24-.243 1.24.873q.01 8.14.007 16.3l-.458.035-.908-8.4-1.282.623a1.55 1.55 0 0 1-2.4-.755c-.506-1.767-1.53-1.92-3.48-1.372m76.085-39.713c-1.462 0-2.924-.028-4.386.014-1.012.028-1.462-.332-1.44-1.407v-8.62c-.014-1.04.367-1.448 1.414-1.435q4.3.063 8.62 0c1.032-.014 1.442.353 1.428 1.414l-.007 8.773c.007.894-.333 1.3-1.24 1.268l-4.386-.007m-32.843 8.825c-.383-.555-.695-1.156-.928-1.788a6.63 6.63 0 0 1 .05-1.85c.47.05 1.192-.076 1.372.18a3.04 3.04 0 0 1 .658 1.954c-.1.582-.8 1.067-1.15 1.5M137.7 183.13c-1.337 1.053-2.654.464-3.97.083l.02-.54 3.915.478.034-.02"/><path d="M195.394 170.346c.38-.742-.028-2.05 1.552-1.74-.014 1.94-.1 2.058-1.552 1.74M57.556 202.924l-.8-1.816.367-.242 1.192 1.122.7-1.2c.4 1 .4 1-1.448 2.134"/><path d="M131.344 182.003l-2.23-.32c.776-1.635 1.518-.464 2.266-.152l-.035.47"/></svg>