<svg xmlns="http://www.w3.org/2000/svg" width="355" height="355" xmlns:v="https://vecta.io/nano"><path d="M88.82 171.904c1.123.186 1.3 1.6 2.392 1.83l.82 1.55c.442-.318.354-.726.388-1.08.215-2.772.917-5.484 2.075-8.012 4.453-9.353 10.946-12.213 19.916-10.506 3.893 1.92 4.7 4.045 3.175 8.057-1.417 3.747-2.846 7.5-2.607 11.632.062 1.077.17 2.146 1.253 2.767.3 1.273 1.087.968 1.776.454a17.58 17.58 0 0 0 3.226-3.023c1.592.5 2.392 1.9 3.48 2.984.138.137.216.324.215.518s-.08.38-.22.516c-2.15 2.286-4.5 4.257-7.684 4.992-3 .694-6.282-2.34-6.87-4.656l-.788-3.274c-.1-.4-.064-.9-.6-1.023-.44-.1-.645.273-.915.534a42.87 42.87 0 0 1-5.426 4.763c-3.748 2.57-5.945 2.505-9.55-1.27-.944-.988-1.4-1.015-2.262-.1-.863.886-1.854 1.637-2.94 2.23-3.85 2.18-7.057 1.62-10.036-1.755-2.076-4.126-1.128-8.66-1.58-13.08-.8.33-.83.982-1.083 1.483-.848.437-1.044 1.316-1.4 2.08-1.575 3.642-3.57 7.087-5.944 10.267a14.99 14.99 0 0 1-1.395 1.543c-2.386 2.283-3.824 2.25-6.292-.112-.754-2.992-.55-6.04-.52-9.082a36.77 36.77 0 0 0-.359-7.676c-.145-.717.054-1.868-1.3-1.817-.9-.34-1.263.347-1.623.914-2.286 3.606-4.165 7.44-6.2 11.2-1.262 2.337-2.32 4.8-3.73 7.038-1.475 2.35-2.713 2.357-4.75.428a32.33 32.33 0 0 1-.164-5.27c.278-6.692.43-13.392.22-20.083-.075-2.345.726-3.62 2.838-4.263.56-.17 1.138-.276 1.708-.412a1.85 1.85 0 0 1 1.375 2.179c-.224 2.748-.333 5.505-.52 8.257a2.76 2.76 0 0 0 .311 1.835 5.24 5.24 0 0 0-.114 2.95c.532-.12.63-.5.8-.838a39.08 39.08 0 0 1 4.46-7.034c1.73-2.167 3.743-3.848 6.747-3.732 3.522 1.807 5.257 4.8 5.786 8.616.3 2.16-.417 4.37.387 6.495a5.51 5.51 0 0 0-.035 3.33l5.786-10.916c1.484-2.83 2.95-5.655 6.65-6.05a5.46 5.46 0 0 1 3.262 5.546 36 36 0 0 0 .785 11.473c.26.934.5 1.88 1.545 2.28 1.047 1.6 2.112.5 2.912-.153 1.686-1.4 2.108-3.492 2.607-5.5zm9.485 4.508c.486 1.334.86 1.434 1.906.26q3.464-3.883 6.805-7.874 2.62-3.13 5.082-6.388c.505-.668 1.253-1.606-.333-2.04-.283-.327-.685-.528-1.117-.558-2.5.034-4.9.282-6.923 2a16.4 16.4 0 0 0-4.64 6.984c-.935 2.47-1.685 4.957-.78 7.615zm-58.398 1.813a14.52 14.52 0 0 1-7.3 7.148 22.01 22.01 0 0 1-6.215 1.586 49.67 49.67 0 0 1-20.124-1.168c-1.672-.396-3.187-1.282-4.35-2.546-.28-3.463.238-4.225 3.547-5.2 5.4 1.35 11 1.906 16.56 1.646-2.582.465-5.222-.017-7.8.453a33.89 33.89 0 0 0 3.813.45 21.41 21.41 0 0 0 4.324-.039c2.336-.38 4.777-.007 7.02-1.124 3.143-1.567 3.88-4.983 1.393-6.854-2.147-3.17-5.647-3.885-8.975-4.844-3.034-.875-6.25-1.027-9.225-2.158-3.02-1.148-5.935-2.482-8-5.116-.1-.3-.2-.6-.338-.892a7.6 7.6 0 0 1 1.487-9.288c3.985-4.123 9.206-5.063 14.558-5.5a61.51 61.51 0 0 1 11.892.459c.583.376 1.2.708 1.74 1.137a3.62 3.62 0 0 1 1.215 4.022c-.7 1.4-2.288 2.102-3.8 1.718-1.476-.258-2.924-.73-4.407-.874-3.677-.357-7.38-.744-11.03.168-1.775.37-3.23 1.635-3.84 3.34-.948 2.584.465 4.715 3.117 5.286 5.55 1.2 11.165 2.182 16.462 4.345a14.69 14.69 0 0 1 8.425 7.9 14.2 14.2 0 0 1-.139 5.955zM156.964 162.5c-1.44-.46-3.15-.293-4.145-1.78.037-.645.434-1.4.045-1.9-.308-.393-.793.192-1.154.454-2 .123-3.412 1.48-4.92 2.5a46.38 46.38 0 0 0-10.06 9.578 3.07 3.07 0 0 0-.553 2.1l.026 7.53c-.017 1.558-.568 2.82-2.253 3.28-1.446.394-2.26-.582-3.142-1.415l-.325-3.18q-.276-10.675-.492-21.353c-.07-3.342.247-3.812 3.256-5.1 1.748.678 2.825 2.443 2.63 4.308l-.082 3.664c-.078.528.072 1.064.412 1.476l-.14.458c-.1.458-.36 1.045.113 1.32.492.286.653-.393.946-.65l3.458-3.093c3.662-2.976 7.034-6.445 12-7.277a4.07 4.07 0 0 1 2.439 2.82c.05.373-.5.866.063 1.107 1.2.516 3.24-.936 3.26-2.287l.06-7.2c-.02-1.32.4-2.046 1.834-1.94a1.81 1.81 0 0 0 1.621-.486 2.15 2.15 0 0 1 1.747 2.443c-.032 2.026.14 4.055.213 6.082a2.04 2.04 0 0 0 .555 1.609c-.16.865.314 1.012 1.028.926l2.556-.27c3.078-.4 6.217-.1 9.27-.8 1.4.622 2.476 1.466 2.475 3.2 0 1.04-.392 1.573-1.476 1.67l-12.643 1.2c-.817.074-1.485.155-1.583 1.167a37.17 37.17 0 0 0-.067 9.76c.593 3.544.908 3.72 4.507 3.76.03.843.024.74 1.038.684 2.755-.157 4.952-1.94 7.563-2.5 3.144 1.436 3.258 5.24-.344 6.668-4.692 1.86-9.622 2.55-14.4.007a6.58 6.58 0 0 1-2.684-2.208 17.63 17.63 0 0 1-1.62-8.255c.088-2.35.07-4.706.106-7.058.02-.767-.02-1.475-1.128-1.026zm73.516-24.683a4.59 4.59 0 0 1 2.688 2.172c.765.877.914 2.134.375 3.166a3.04 3.04 0 0 1-3.1 1.588c-1.868-.18-3.66-.773-5.54-.955a54.9 54.9 0 0 0-8.688-.145c-3.734.23-5.865 2.326-5.95 5.5-.137 1.215.596 2.36 1.757 2.743a47.47 47.47 0 0 0 7.423 1.915c5.58 1.32 11.178 2.6 15.77 6.378a8.6 8.6 0 0 1 3.13 7.841c-.5 5.737-3.3 9.18-9.736 10.76a43.8 43.8 0 0 1-25.379-.963 6.12 6.12 0 0 1-2.947-2.1c-.165-3.688.7-4.737 4.012-4.876l6.62 1.437a2.26 2.26 0 0 0 .588.231 84.05 84.05 0 0 0 14.1.035 6.15 6.15 0 0 0 2.83-1.082 3.76 3.76 0 0 0 .931-5.961c-1.455-2.78-4.22-3.614-6.883-4.57-3.387-1.215-7.024-1.38-10.453-2.425a17.98 17.98 0 0 1-8.9-5.348c-.168-.386-.354-.77-.5-1.166-1.044-2.67-1.318-5.326.5-7.77a14.1 14.1 0 0 1 5.1-4.3c4.047-2 8.395-2.43 12.8-2.6 3.163-.13 6.298.35 9.45.505zm68.204 9.738c6.347 1.63 11.6 4.718 13.765 11.286a17.56 17.56 0 0 1-.949 13.027c-1.564 3.412-4.822 4.37-8.3 4.566-1.557.06-3.117.037-4.672-.068-1-.05-1.487.237-1.48 1.33.052 6.862-.424 13.72-.172 20.586a21.82 21.82 0 0 1 0 2.893c-.278 2.838-2.67 3.86-4.98 2.157-.285-.24-.552-.5-.8-.778-.044-1.278-.16-2.56-.126-3.836.15-5.5.646-10.984.686-16.492.02-2.88.3-5.76.426-8.64q.4-9.127.76-18.256c.015-.36.127-.84-.3-.995-.535-.2-.688.373-.97.662-1.326.143-1.944 1.256-2.778 2.054-1.522 1.456-2.393 1.4-3.614-.392-.5-.747-.935-1.553-1.4-2.33 3.513-4.072 7.684-6.8 13.333-6.582a2.78 2.78 0 0 0 1.573-.192zm5.85 9.28l-.012-.048a11.87 11.87 0 0 0-4.76-3.154c-1.283-.43-1.757-.106-1.833 1.23l-.9 13.742c-.118.7 0 1.398.335 2.012-.025.548.285.77.786.8a22.49 22.49 0 0 0 5.591-.1 5.07 5.07 0 0 0 3.778-2.907c1.1-2.393.168-9.12-2.518-10.952zm17.798 13.393l.837.124a26.79 26.79 0 0 0 10.482.468 4.55 4.55 0 0 0 2.586-1.53c1.054-1.106.9-2.033-.464-2.986-1.7-2.225-4.3-2.473-6.728-3-2.88-.637-5.823-1.03-8.5-2.376a9.16 9.16 0 0 1-4.039-3.3c-.057-3.094.65-5.836 3.455-7.654a18.86 18.86 0 0 1 8.137-2.808 22.57 22.57 0 0 0 4.592-.607 2.34 2.34 0 0 1 1.45.16c.67.808 1.53.3 2.313.327a6.1 6.1 0 0 1 2.275 1.456c.877.513 1.228 1.603.815 2.53a2.05 2.05 0 0 1-2.383 1.224c-1.974-.206-3.96-.3-5.944-.247a14.54 14.54 0 0 0-5.217.828 4.5 4.5 0 0 0-2 1.292c-1.12 1.353-.867 2.145.88 2.556 3.695.868 7.513 1.25 11 2.893a18.42 18.42 0 0 1 5.475 3.882 6.61 6.61 0 0 1 1.965 5.01c-.085 1.872-.964 3.622-2.416 4.8a13.35 13.35 0 0 1-7.769 3.11c-5.032.56-9.937-.432-14.84-1.332a2.49 2.49 0 0 1-1.807-1.232c-.122-1.595.367-3.176 1.367-4.424l.766.087c1.168.494 2.424.748 3.692.75zm-38.537-4.474c2.895 1.478 3.295 2.7 1.76 5.5a17.57 17.57 0 0 1-7 7.107c-4.652 2.573-10.856.627-13.683-4.338-.42-.74-.7-1.555-1.06-2.335.58-.47.357-1.092.237-1.636a22.24 22.24 0 0 1 .12-10.643c1.452-5.487 4.2-10.535 12.063-9.863.373.032.75.02 1.124.028 2.922 1.3 5.354 3.116 6.412 6.287 1 3.024-.08 4.9-3.225 5.5-3.1.6-6.218 1.146-9.346 1.586a1.78 1.78 0 0 0-1.807 2.1c-.082 1.765.128 3.532.622 5.23.342 1.45 1.552 2.532 3.03 2.712a3.2 3.2 0 0 0 3.848-.34 13.56 13.56 0 0 0 3.773-4.876 3.18 3.18 0 0 1 3.132-2.009zm-6.693-9.832c-1.818-1.5-4.02-.872-5.042 1.426-.108.346-.673.534-.472.94s.668.215 1.02.164l3.965-.616c.564-.1 1.367.114 1.58-.506.256-.743-.595-1.002-1.05-1.407zm-31.716-15.148c1.192.15 1.5.9 1.522 2l.226 5.883c-.052.744.13 1.487.52 2.123-.13.93.58.734 1.06.735 4.02.012 8.005-.513 12-.83a3.29 3.29 0 0 1 1.7 1.157 2.69 2.69 0 0 1 .518 2.71c-.263 1.043-1.132.808-1.833.88l-12.165 1.2c-1.136.1-1.535.562-1.658 1.684a40.15 40.15 0 0 0 .1 10.091 3.34 3.34 0 0 0 2.1 2.975c1.642 1.207 3.423.808 5.2.4 1.982-.443 3.58-1.88 5.623-2.175a3.3 3.3 0 0 1 2.42 3.065c-.017 1.617-1.063 3.043-2.6 3.546-4.216 1.724-11.75 2.95-16.416-1.293a7.86 7.86 0 0 1-2.385-3.148c.67-1.108-.166-2.154-.144-3.245.06-3.087.043-6.176.025-9.264 0-.575.26-1.385-.8-1.4-.877-.66-2.035-.385-2.962-.883a3.38 3.38 0 0 1-1.294-1.09c.208-2.4.98-3.2 3.987-3.7 1.162-.192 1.52-.685 1.512-1.788-.016-1.924.084-3.85.124-5.774.085-3.893-.096-3.43 3.622-3.87zm37.808 12.322v.037zm26.714 43.05l17.113 1.94c6.86.926 13.75 1.622 20.578 2.782 1.477.307 2.816 1.082 3.818 2.2.83.84.986 2.135.382 3.15a2.76 2.76 0 0 1-2.958 1.505c-2.24-.246-4.47-.58-6.7-.864q-12.046-1.54-24.093-3.07-4.55-.573-9.1-1.067a5.48 5.48 0 0 1-3.683-2.011c.384-3.284 1.02-3.952 4.108-4.34a2.16 2.16 0 0 0 .546-.234zm-4.285.19l-.02.025zm-192.573 4.246l-.4.018-4.435.617a.25.25 0 0 0-.4.017c-1.493.072-2.977.284-4.43.632a.74.74 0 0 0-.735.039l-7.982 1c-13.063 1.834-26.1 3.9-39.063 6.293-3.955.728-7.894 1.546-11.833 2.357a2.55 2.55 0 0 0-2.094 2.361 2.12 2.12 0 0 0 1.2 2.527c.8 1.323 2.35 1.993 3.86 1.67l14.2-2.786 41.514-6.452c13.514-1.78 27.045-3.416 40.614-4.682 20.113-1.876 40.27-3.163 60.466-3.707 16.276-.438 32.556-.442 48.827.333l16.734.9a3.12 3.12 0 0 0 3.079-1.342 2.56 2.56 0 0 0-.03-3.038 5.63 5.63 0 0 0-3.8-2.484c-1.973-.17-3.964-.125-5.948-.173-6.62-.68-13.268-.765-19.9-.943l-.952-.05c-11.828-.35-23.658-.256-35.488-.08-.258.038-.5.108-.75.2-.875-.244-1.8-.237-2.672.022-.788-.174-1.6-.204-2.4-.1-13.036.5-26.066 1.048-39.077 2.074L132.75 198.3c-5.765.58-11.545 1.06-17.268 2l-.97.08z"/></svg>