<svg xmlns="http://www.w3.org/2000/svg" width="355" height="355" xmlns:v="https://vecta.io/nano"><path d="M189.18 166.2l5.448-8.1a9.37 9.37 0 0 0 1.245-2.12c.416-1.238.7-2.745-.637-3.5-1.363-.756-2.215.464-2.96 1.477l-1.68 2.143-1.173-1.63c-.66-1.054-1.465-1.667-2.775-1.167-1.192.356-1.905 1.573-1.632 2.787.536 3.578 2.227 6.7 4.162 10.1m-3.234 18.84c-.244-.054-.494-.125-.738-.2-2.382 4.025-4.966 7.937-7.068 12.1-1.68 3.3.774 6.93 4.508 7.175 4.436.292 7.687-2.108 10.658-4.954a2.23 2.23 0 0 0 .03-1.99c-.977-1.93-2.1-3.8-3.227-5.65-1.346-2.2-2.77-4.323-4.163-6.5m11.5-47.743c2.048.953 4.293 1.63 6.1 2.918 3.02 2.18 4.037 5.556 3.614 9.087-.328 2.56-1.057 5.055-2.16 7.4a92.7 92.7 0 0 1-11.307 17.863 3.6 3.6 0 0 0-.208 4.656c1.983 3.275 3.787 6.65 5.7 9.962 1.173 2.03 1.947 2.1 3.24.077 1.9-2.977 3.692-6.02 5.43-9.087 1.036-1.822 1.447-1.876 2.882-.274 1.566 1.75 3.328 3.317 4.835 5.1a4.73 4.73 0 0 1 1.143 2.888 7.03 7.03 0 0 1-1.179 3.62c-2.5 3.5-5.1 6.9-7.83 10.194-.816.994-1.012 1.715-.37 2.78l5.853 9.873c1.34 2.24 1.137 2.638-1.483 2.8-.634.073-1.263.2-1.88.35h-4.24l-3.918-6.7c-1.155-1.995-1.5-2.22-3.46-1.054-5.872 3.5-12.2 4.156-18.763 3.067-5.276-.887-11.593-4.02-12.528-10.92a15.31 15.31 0 0 1 3.085-11.5c3.293-4.353 6.984-8.408 10.6-12.517a3.02 3.02 0 0 0 .72-3.448c-2.036-5.84-3.924-11.742-3.56-18.06.345-6.08 2.47-11.343 7.264-15.32 2.453-2.054 5.484-2.6 8.456-3.323.506-.125 1-.292 1.506-.44zM1.685 190.646l4.3-2.352c1.55-.8 2.3-.464 2.626 1.245a30.9 30.9 0 0 1 .75 5.044 4.47 4.47 0 0 0 1.828 3.448 2.26 2.26 0 0 0 1.745.37 5.56 5.56 0 0 0 4.28-5.234c-.1-3.734-.488-7.48-.947-11.188a6.31 6.31 0 0 0-3.084-4.335c-1.786-1.227-3.853-2.25-5.228-3.84-5.907-6.877-7.038-14.3-2.37-22.264 2.173-3.7 5.865-4.585 9.95-4.335 3.15.2 5.573 1.822 7.723 3.858 1.637 1.542 1.626 3.72 1.328 5.8-.066.423-.68.917-1.15 1.108a20.11 20.11 0 0 1-2.554.655c-1.334.34-1.893 0-2.275-1.506a11.45 11.45 0 0 0-2.388-3.793c-.445-.37-1.024-.544-1.6-.476-2.593.353-4.586 2.47-4.782 5.08-.004 2.17.147 4.34.452 6.5a6.54 6.54 0 0 0 3.6 4.972c6.336 3.347 9.1 9.033 9.915 15.72a44.42 44.42 0 0 1-.375 10c-.4 3.656-2.644 6.377-5.43 8.58-3.055 2.418-7.68 2.227-10.9.1a8.7 8.7 0 0 1-4.365-7.675 22.89 22.89 0 0 0-1.054-4.746zm133.23-21.044l.3.024.042 5.984c.03.512.524 1.345.923 1.423 1.477.28 3.007.518 4.317-.7l3.347-2.846a3.95 3.95 0 0 0 1.15-2.25c.255-3.096.293-6.206.113-9.307-.44-5.06-3.156-7.658-7.443-7.723-.917-.012-1.387.173-1.47 1.2l-1.286 14.2m9.408 11.23c3.555 3.05 4.55 7.14 5.43 11.23.8 3.733 1.352 7.527 2.037 11.3.238 1.3-.15 2.024-1.56 2.126-1.447.1-3.328.9-4.2.268-.786-.566-.328-2.7-.65-4.1-1.137-4.865-2.256-9.736-3.62-14.535-.5-1.964-2.236-3.37-4.263-3.466-2.025-.178-2.316-.006-2.27 2.02l.453 16.6c.1 3.162.1 3.162-3.037 3.3l-.172.006c-3.656.18-3.668.18-3.662-3.436l.083-23.627.7-28.945c.03-1.364.566-2 1.852-1.965a34.44 34.44 0 0 1 13.952 2.769c2.727 1.268 4.18 3.745 4.918 6.586a37.93 37.93 0 0 1 .738 15.589 9.01 9.01 0 0 1-3.775 6.163l-2.942 2.114m-85.897-32.792l-.875 20.263-1.858 29.242c-.447 6.64-4.92 8.67-10.248 8.574-5.45-.1-8.914-3.1-11.463-7.324a14.4 14.4 0 0 1-1.53-5.871c-.572-5.96-1.18-11.94-1.3-17.917-.143-6.58.25-13.17.38-19.757.047-2.394.012-4.782.012-7.235 1.906-.167 3.584-.393 5.264-.423.976-.012 1.566.494 1.477 1.7-.85 9.555-1.003 19.16-.46 28.736.316 4.28.345 8.586.56 12.88a10.07 10.07 0 0 0 3.531 7.61 7.05 7.05 0 0 0 3.966 1.465c2.28.077 3.358-1.036 3.483-3.34l.828-19.22c.155-3.406.458-6.8.637-10.206l.673-14.106c.37-5.937 1.006-5.627 7.1-4.9.047 0 .083.072-.173-.173"/><path d="M110.597 157.837c-.458.328-.62.38-.637.464l-3.3 15.148c-.01.5.233.952.643 1.22a8.32 8.32 0 0 0 5.943.262l-2.638-17.1m-1.316 22.978c-4.507-.3-4.406-.28-5.6 4.043-1.65 5.913-3.234 11.808-2.68 18.042.12 1.375-.6 1.935-1.923 1.816-.232-.018-.47-.006-.7-.012-4.907-.077-4.186-.018-3.954-4.632a85.88 85.88 0 0 1 3.239-17.977l7.76-28.766a14.01 14.01 0 0 1 3.263-4.93c1.24-1.405 4.877-.417 5.37 1.43 1.262 4.7 2.364 9.438 3.52 14.166a165.45 165.45 0 0 1 3.942 27.73 108.63 108.63 0 0 0 1.691 11.117c.16.9.036 1.363-.863 1.506-1.453.238-2.9.518-4.365.62a1.55 1.55 0 0 1-1.209-.81 10.76 10.76 0 0 1-.572-2.757l-1.685-18.4c-.113-1.524-.536-2.114-2.048-2.036a29.87 29.87 0 0 1-3.174-.149m-18.25 7.876c-.256 3.745.262 7.27-1.637 10.468-2.424 4.06-5.8 6.5-10.653 6.24a20.22 20.22 0 0 1-5.853-1.06c-3.47-1.268-4.674-4.383-5.026-7.7-.726-6.9-1.5-13.8-1.733-20.722-.18-5.5.37-11.022.685-16.53.184-4.375 2.33-8.434 5.84-11.05 1.72-1.292 4.53-1.47 6.865-1.542a9.66 9.66 0 0 1 10.05 7.467c.322 1.542.834 3.05 1.292 4.56.345 1.13.006 1.715-1.173 2.06-4.026 1.185-3.966 1.2-5.282-2.74-.672-2.013-1-4.3-3.53-5.12-2.423-.78-4.46-.37-5.627 1.858a22.99 22.99 0 0 0-1.8 5.633c-.157 1.227-.2 2.465-.155 3.7-.274 5.448-.816 10.9-.762 16.345.2 4.16.658 8.306 1.34 12.415.208 1.63.583 3.24.94 4.847.103.74.496 1.4 1.093 1.86a2.81 2.81 0 0 0 2.087.54c3.636-.1 6.567-3 6.672-6.645l.07-9.182a1.86 1.86 0 0 0-1.911-2.2c-.176-.017-.35-.043-.524-.078-3.888-.732-3.96-.863-3.62-4.912.07-.9.375-1.328 1.3-1.126l8.443 1.858a2.27 2.27 0 0 1 1.94 2.16c.113.93.583 1.822.63 2.74.1 2.06.03 4.12.03 5.87m138.86 2.066l4.06-2.465c1.453-.8 2.263-.464 2.572 1.1a31.9 31.9 0 0 1 .774 5.216c.086 1.426.824 2.732 2 3.543a1.91 1.91 0 0 0 1.608.25c2.358-.875 4.287-2.43 4.234-5.085a96.14 96.14 0 0 0-.977-11.534c-.375-2.7-2.608-4.186-4.835-5.27-6.354-3.1-10.742-14.338-7.324-22.032 3.05-6.853 8.068-8.336 13.76-6.776 3.757 1.03 7 3.525 6.955 7.443-.018 1.685-.25 2.906-2.2 3.108-.582.087-1.157.214-1.72.38-1.245.322-1.8-.006-2.186-1.405a11.04 11.04 0 0 0-2.22-3.7 2.2 2.2 0 0 0-1.87-.631c-2.34.643-4.877 2.043-4.776 5.294a58.91 58.91 0 0 0 .482 6.139c.3 2.213 1.67 4.134 3.674 5.115 6.223 3.28 8.968 8.866 9.807 15.416a44.51 44.51 0 0 1-.315 10.17c-.393 3.8-2.72 6.6-5.663 8.818-3.138 2.346-7.657 2.037-10.9-.226-2.47-1.727-4.043-3.728-4.06-6.913a41.94 41.94 0 0 0-.887-5.937m35.2-21.368l.3.012.006 4.055.15 4.055c.01.62.25 1.213.68 1.66 2.185 1.46 7.342-.863 7.533-3.465.312-6.24-.38-12.487-2.048-18.506-.63-1.93-2.575-3.1-4.58-2.78-.935.143-1.46.524-1.488 1.578l-.542 13.392m.4 36.007l-5.472-.685c-1.13-.143-1.143-.96-1.125-1.834l.244-14.815.1-36.5c.006-2.412 1.423-4.007 3.823-3.93 2.347.063 4.686.294 7 .7 2.974.496 5.457 2.54 6.514 5.365 1.828 4.234 2.2 8.76 2.72 13.25.25 2.222.374 4.457.37 6.693.03 6.6-4.132 10.033-9.8 10.938-.06.012-.12.012-.18.018-4.442.476-4.442.476-4.466 5.044l-.053 11.647c.006 1.34.2 2.68.3 4.1m43.332-23.713l1.322 14.3c.137 1.38.613 2.8 2.215 3.03a3.02 3.02 0 0 0 3.388-2.257 26.92 26.92 0 0 0 .768-4.668c.108-.816.108-1.644.2-2.465.036-.345.13-.93.3-.965.744-.167 1.685-.47 2.25-.167 1.114.607 3.2-.44 3.352 1.75a22.21 22.21 0 0 1-1.727 10.522 6.66 6.66 0 0 1-5.311 3.954c-2.32.248-4.66.24-6.98-.024-1.543-.114-2.823-1.236-3.138-2.75-1.18-4.835-2.727-9.676-3.114-14.594-.458-5.812.024-11.72.3-17.578a109.65 109.65 0 0 1 1.262-13.5c.816-4.662 3.632-7.76 8.6-8.6 3.728-.63 6.646.494 8.57 3.74 2.2 3.692 2.614 7.884 3.245 12 .144.947-.3 1.346-1.286 1.44-4.984.47-5.008.435-5.436-4.64a21.29 21.29 0 0 0-.816-4.126 2.37 2.37 0 0 0-2.763-1.941c-1.155.234-2.175.907-2.846 1.876a13.04 13.04 0 0 0-1.227 4.906L308.82 181.7m29.948-5.2l-.5 4.58-.93 15.85c-.083 1.358.328 1.97 1.8 1.7a16.23 16.23 0 0 1 2.459.024l7.348-.178c2.3-.173 2.757.137 2.632 2.394-.2 3.567-.2 3.6-3.8 3.525a43.02 43.02 0 0 0-11.034.7c-1.685.4-3.817-.8-5.64-1.542-.4-.167-.518-1.465-.47-2.227l1.208-17.226a148.11 148.11 0 0 0-.566-23.77c-.352-2.97-.447-5.978-.524-8.973-.065-2.382.626-3.055 3.037-3.1l11.45-.018c1.174-.043 2.343-.166 3.5-.37 1.482-.214 2.4.214 2.5 1.864.036.584.184 1.16.274 1.74.16 1.012-.125 1.44-1.286 1.5-3.75.2-7.5.6-11.248.816-1.2.07-1.662.453-1.6 1.7l.732 13.73c.17.548.6.97 1.167 1.113 1.745.054 3.5-.137 5.258-.173 1.608-.087 3.22-.05 4.823.107.694.253 1.238.803 1.482 1.5a13.84 13.84 0 0 1 .352 2.965c.13 1.274-.4 1.8-1.715 1.786l-10.724-.018m-45.227-16.973l.006 13.04.292 27.784c.018 3.948.7 3.507-4.007 4.115a3.61 3.61 0 0 1-1.911-.131c-.518-.244-1.215-.905-1.2-1.37q.178-9.637.56-19.275c.137-3.4.63-6.8.6-10.2-.03-3.8-.524-7.616-.727-11.433l-.464-12.332c-.048-1.84.68-2.394 2.47-2.132l3.322.43c1.28.16 1.75.845 1.715 2.162-.083 3.114-.024 6.228-.024 9.343h-.625"/></svg>