<svg xmlns="http://www.w3.org/2000/svg" width="356" height="355"  fill="#231f20" xmlns:v="https://vecta.io/nano"><path d="M294.9 275.6v-5.9h-1.6l-2.5 5.9v1.3h2.6v1.6h1.4V277h.6v-1.3h-.5v-.1zm-1.4 0h-1.3l1.3-3.1v3.1zm-7.4-6c-1.4 0-2.1.8-2.1 2.3v4.5c0 1.4.8 2.2 2.1 2.2s2.1-.8 2.1-2.2v-1.6c0-1.3-.6-2-1.6-2h0c-.6 0-1 .2-1.2.7V272c0-.9.3-1 .7-1 .5 0 .7.3.7.8v.3h1.4v-.3c0-1.4-.7-2.2-2.1-2.2zm0 4.5c.5 0 .7.3.7.8v1.6c-.1.5-.3.8-.7.8-.5 0-.7-.3-.7-.8v-1.6c0-.6.2-.8.7-.8zm13.5-20.8c-2.8-1.2-6.4-1.2-8.8-2.7-2.4-1.6 2.1-4.6 3.2-5.4l2.8-1.8c1.5-.5 2.6-.1 3.9-.8 1.5-.8 2.3-2.2 1.8-3.2s-2.1-1.2-3.6-.3c-1.1.6-2.3 1.7-3.2 2.6-2.3 1.4-7.5 4.2-7.9 7.7-.1 1.3.3 2.3 1.1 3-.9 1.4-3.4 5-6 7l-1.7 1.2c-1.4.9-3.6 2.1-5.9 2.3h-.7c-2.2-.1-2.7-1.8-2.8-2.7-.3-2.5 1-5.4 1.7-6.9 1.4-2.8 3.3-5.6 5.6-7.6.1-.1.5-.3.8-.5-.1.8-.5 2.7-1.8 5.2-1.3 2.3-3.1 2.9-3.1 2.9-.5.1-.9.3-1.3.6-.8.8-1.2 2.1-.5 3 .6.9 2.1.9 3.2-.1.8-.8 1.4-2 1.8-3 1.4-1.9 3.7-5.1 4.1-8.5v-.8c-.1-1.7-1.9-2.3-3.5-1.6-2.3 1.1-3.9 3.2-5.4 5.1-1.7 2.2-3.4 4.9-4.2 8-2 1.7-3.9 2.9-3.9 2.9-2.8 1.7-5.8 3.4-7.6 4-1.1.3-1.5-.6-1.6-1.3-.2-3.8 2-10.6 3.2-12 .6-.6 1.6-.7 1.9-1.4.3-.8-.2-1.8-1.2-2.3-1.5-.6-2.1.1-2.4 1.3v.1c-.1.5-.9 3.4-1.9 5.9-.9 2-1.7 4-2.1 6.3-.4.2-1.1.6-1.1.6-2.2 1.1-6.4 1.7-6.5 1.7l-6.5.7c-2.2 0-5.6.1-6.8-1.2-1.9-2.1 10.5-9 12-9.2 1 0 1.8.6 2.6.3 2.2-.9.8-4.6-1.4-3.7-.2.1-.3.1-.5.2l-5.1 2.8c-2.9 1.3-5.8 2.8-8.2 5 1-2.8 1.9-5.5 3-8.2 1.7.7 3.2-1.8 4.2-4.1 2.8-4.8 6.8-11.5 9.1-17.5.8-1.7 1.4-3.3 1.9-4.9s1-4.5-1.4-4.5c-1.4 0-2.3 1.4-3 2.2-3.9 4.9-6.8 11.4-9.4 17.5-.2.6-.5 1.1-.7 1.7-.2.4-.4.9-.6 1.3-2.1 4.9-3.9 9.9-5.5 15-.4 1.3-.8 2.5-1.1 3.7-3.8 2-8.3 3-9.9 3.4l-5.6.6c-2.2 0-5.6.1-6.8-1.2-1.9-2.1 10.5-9 12-9.2 1 0 1.8.6 2.6.3 2.2-.9.8-4.6-1.4-3.7-.2.1-.3.1-.5.2l-5.1 2.8c-2.9 1.3-5.8 2.8-8.2 5 1-2.8 1.9-5.5 3-8.2 1.7.7 3.2-1.8 4.2-4.1 2.8-4.8 6.8-11.5 9.1-17.5.8-1.7 1.4-3.3 1.9-4.9s1-4.5-1.4-4.5c-1.4 0-2.3 1.4-3 2.2-3.9 4.9-6.8 11.4-9.4 17.5-.2.6-.5 1.1-.7 1.7-.2.4-.4.9-.6 1.3-2.1 4.9-3.9 9.9-5.5 15l-1.5 5.1c-1.6 1.7-3.6 3.2-4.6 3.8l-3.9 2.3c-.5.3-1.1.6-1.6.6l.4-3.5c.2-2.7-1.8-4-4.5-3.2-3.8.9-6.4 3.1-9.7 4.5-.6.3-2.7 1.4-2.9.3s.6-2.1 1-2.9c1.6-2.6 4.3-5.3 7.2-6.5.5-.2.9-.3 1.3-.4 2.2-.4 1.6 1.4 2.4 2.3.7.8 2.4 1.8 3.2.4 1.6-2.7-2-5.1-4.6-4.7-2.6 0-4.4 1-6.2 2.3-2.8 1.9-5.8 4.7-6.8 8.2-.8 2.6.9 4.8 3.4 4.6 3.1-.3 5.2-1.9 7.4-3 1.5-.8 3.1-1.7 4.9-2.2.4-.1.8-.2 1-.2-.1 2.7-1.2 8 3.2 6.5 2.5-.9 6.1-3.7 8.6-6-.2.7-.3 1.3-.5 1.9-1.8 6.8-2.6 11.4-2.5 12.6 0 .1.2.1.2 0 .7-1.3 2.3-6.2 3.6-10.3l.6-1.8c.1-.2.8-2.6 1.2-3.5.6 1.1 1.7 1.8 3.1 2.2 4 1.2 10.3.1 13.4-.7 3.8-1 6.7-2.1 7.8-2.8-.4 1.4-.7 2.7-1 3.9-1.8 6.8-2.6 11.4-2.5 12.6 0 .1.2.1.2 0 .7-1.3 2.3-6.2 3.6-10.3l.6-1.8c.1-.2.8-2.6 1.2-3.5 2.4 4.3 12.2 2.6 16.4 1.5 3.3-.8 5.6-1.7 6.9-2.4-.2 2.6 1 5.3 3.9 4.7 1.5-.3 2.6-1 3.6-1.6 1.6-1 5.2-3.9 8-6.1v.1c-.2 2.5.7 4.3 1.9 5.6.3.3 1 .8 2.3 1.1 1 .2 2 .2 3 0h.2c4.4-.8 8.1-4.4 10.2-6.6 1-.9 3.1-3.8 4.1-5.2 1.6.8 3.8 1.3 5.6 1.8-3 1.6-6.8 3.9-8.3 6.7-.5.8-.5 2 0 2.9 0 0 .6 1.3 3 1.3h.4.3c2.9-.3 6.1-2.4 7.5-3.5 1.5-1.3 5.7-4.7 3.2-7.6l-.4-.4c4.6-3.1 7.7-4.6 7.5-5h0c-.1-.3-4 .8-9.7 3.6zm-60.1-16c2.6-5.5 6.2-12.2 8.9-16.2-.9 3.9-5.8 14.7-9.2 20-.9 1.5-1.7 2.5-2.3 2.9.2-2 2.6-6.7 2.6-6.7zm-26.5.4c2.6-5.5 6.2-12.2 8.9-16.2-.9 3.9-5.8 14.7-9.2 20-.9 1.5-1.7 2.5-2.3 2.9.3-2 2.6-6.7 2.6-6.7zm86.9 19.4c0 .1-.1.6-.7 1.2l-.6.6c-2.2 2-4.9 3.2-5.6 3.4-.4.1-.9.3-1.3.4-.8.2-.9-.2-.9-.2-.1-.3.4-.9.7-1.2 1-1 3.1-3 7.4-5.3 0 0 .1 0 .3.1h.1.1c.3.1.6.4.5 1zm-41.4-15.4c.1.5.5.8 1 .8 0 0 .6 0 1.3-.2 1.5-.6 2.9-1.8 2.4-2.8-.8-1.6-3 0-4.2.9.1.1-.6.7-.5 1.3zM44.1 105.5h54.5v15.6H44.1zm18.6 22.3h17.6v90H62.7zm210.2 90h17.7V170l21.3-64.5h-17.1L272.9 177zM243.3 88.7h-4.6v-4.8h3.7v-2.6h-3.7v-4.6h4.6v-2.5h-7.4v17h7.4zm-3.9 181h1.4v8.8h-1.4zm-24-190.2l3.1 11.7h2.9v-17h-2.5v9.6l-2.6-9.6h-3.5v17h2.6zm-106 11.9c2.6 0 4-1.5 4-4.3v-5.4h-3.9v2.6h1.2v3c0 1.1-.4 1.6-1.3 1.6s-1.3-.5-1.3-1.6v-9.1c0-1.1.4-1.6 1.3-1.6s1.3.5 1.3 1.6V80h2.7v-1.7c.1-2.8-1.4-4.3-4-4.3s-4 1.5-4 4.3v8.8c0 2.8 1.4 4.3 4 4.3zm125.1 178.3c-1.3 0-2.1.8-2.1 2.2s.8 2.1 1.5 2.8c.6.5 1.2 1.1 1.2 1.9 0 .6-.2.8-.7.8s-.7-.3-.7-.8v-.7h-1.4v.6c0 1.4.7 2.2 2.1 2.2 1.3 0 2.1-.8 2.1-2.2 0-1.5-.8-2.2-1.5-2.8-.6-.5-1.2-1.1-1.2-1.9 0-.6.2-.8.7-.8.4 0 .7.3.7.8v.4h1.4v-.3c0-1.4-.7-2.2-2.1-2.2zm44.3-135.6l-8.4-28.6h-18.8l18.7 56.7zm-83.3-59.9h2.8v17.1h-2.8zm-60.1 14.5h-4.6v-4.8h3.6v-2.6h-3.6v-4.6h4.6v-2.5H128v17h7.4zm17-9.2l3.2 11.7h2.9v-17h-2.6v9.6l-2.6-9.6h-3.4v17h2.5zm6.6 111.9v-20.7-.5-37.8c-.1-18-9.5-28.2-26.8-28.2s-26.8 10.3-26.8 28.2v37.8.5 20.7c0 18 9.5 28.2 26.8 28.2s26.8-10.3 26.8-28.2zm-17.7-21.2v.5 21.8c0 8-3.5 11.1-9.1 11.1s-9.1-3-9.1-11.1v-21.8-.5-39c0-8 3.5-11.1 9.1-11.1s9.1 3 9.1 11.1v39zm48.9 56.1c3.9-3.3 7.7-6.2 11.2-8.2 0 0 .2-.1.6-.2 3.3-.8 6.8-1.7 10-2.3l14.5-2.4v4.6h16.7v-7.4l11.4-1.9.7-.1c1.9-.3 3.7-.5 5.3-.8 3.8-.6 3.8-1.5 3.8-1.5 0-.1-.2-.3-.5-.4h0c-2.4-.7-12.1.2-12.6.2l-3.1.3c-1.3.1-3 .3-5 .6V105.5h-24.3l-13.3 33.4-13.1-33.4h-18.7l31.8 71.5 20.9-44.3V209l-41.4 6c-.2 0-.3 0-.5.1v-69l-16.7-37.7v109.3c-21.8 4.1-28.3 8.4-28.3 8.4-2.4 1.3-4.5 3.5-4.4 5.6 0 0 .2 1.3 1.4 1.6.2.1.4.1.6.1 1.7.2 4.8 0 10.4-1.2l1.7-.4 7.1-1.8 34.1-9.2c.5-.1 1.1-.3 1.6-.4-32.9 28.9-44.5 53.3-45.1 54.7-.1.3-.3.6-.4.9-.4.9-1.9 4.9.8.6.3-.4.6-1 1-1.6 3.9-6.2 18.9-28.8 41.8-48.7zm-13.6-4.8c-8.6 2.4-18.7 4.9-26 6.7h0c-5.3 1.2-10 1.9-10 1.9 12.5-7.8 54.3-13.8 54.3-13.8-4.2 1.4-14.7 4.1-18.3 5.2zm.4-130c2.6 0 4-1.5 4-4.3v-13h-2.7v13.1h.1c0 1.1-.4 1.6-1.3 1.6s-1.3-.5-1.3-1.6V74.2H173v13c0 2.8 1.4 4.3 4 4.3zm101.8 178.1h0c-1.4 0-2.1.8-2.1 2.2v1.6c0 1.3.5 2 1.6 2 .6 0 1-.2 1.2-.7v1.5c0 .9-.3 1-.7 1-.5 0-.7-.3-.7-.8v-.3h-1.4v.3c0 1.4.7 2.2 2.1 2.2s2.1-.8 2.1-2.3v-4.5c.1-1.3-.7-2.2-2.1-2.2zm.8 3.8c0 .6-.2.8-.7.8s-.7-.3-.7-.8v-1.6c0-.6.2-.8.7-.8s.7.3.7.8v1.6zm-7.6-3.6c-.2.6-.5 1.1-1.5 1.1v1h1.1v6.7h1.4v-8.8h-1 0zm-13.3 8.7h3.8v-1.3h-2.4v-2.5h1.9v-1.3h-1.9v-2.3h2.4v-1.4h-3.8zm-5.1-8.9c-1.3 0-2.1.8-2.1 2.2v4.5c0 1.4.7 2.2 2.1 2.2 1.3 0 2.1-.8 2.1-2.2v-1.2h-1.4v1.3c0 .6-.2.8-.7.8s-.7-.3-.7-.8v-4.7c0-.6.2-.8.7-.8s.7.3.7.8v1h1.4v-.9c0-1.4-.8-2.2-2.1-2.2zm-6.4 5.1l-1.4-4.9v-.1H244v8.8h1.3v-6.1l1.7 6.1h1.5v-8.8h-1.3z"/></svg>