<svg xmlns="http://www.w3.org/2000/svg" width="356.418" height="355" stroke="rgba(112,112,112,0)" xmlns:v="https://vecta.io/nano"><path d="M177.77 245.295h172.015c2.72 0 2.72 0 2.72-2.65v-132.42c0-2.635 0-2.635-2.727-2.635q-171.922-.01-343.85 0c-2.72 0-2.72 0-2.72 2.813v132.073c0 3.178-.243 2.806 2.906 2.806q85.822.01 171.658.007M.504 248.336v-143.8h355.064l-.15 2.463q-.01 69.232-.007 138.442a4.17 4.17 0 0 1-.043 1.585c-.236.5-.648.897-1.157 1.114a5.36 5.36 0 0 1-1.763.043q-174.653 0-349.307.014c-.878 0-1.764.093-2.642.136"/><path d="M.504 248.336l2.642-.136q174.653-.02 349.307-.014a5.36 5.36 0 0 0 1.763-.043c.5-.217.92-.613 1.157-1.114a4.17 4.17 0 0 0 .043-1.585q.01-69.2.007-138.442c0-.82.1-1.642.15-2.463a6.4 6.4 0 0 1 .336 1.421q.032 29.465.014 58.943v83.8q-176.913 0-353.82-.022a7.11 7.11 0 0 1-1.6-.343M106.16 168.78v1.906l.03 21.3c.014 1.442-.37 1.985-1.885 1.928-4.648-.157-4.04.693-4.056-4.034l-.007-29.118c0-2.477.02-2.32 2.392-2.527 2.117-.276 4.2.716 5.32 2.535 5.234 6.876 10.668 13.588 16.03 20.357.464.592.964 1.157 1.82 2.17.08-1.128.157-1.72.164-2.314l-.03-20.592c-.014-1.55.293-2.228 2.035-2.15 4.44.193 3.827-.635 3.842 3.877l.043 29.468c.014 1.7-.343 2.328-2.228 2.385-1.877.14-3.68-.756-4.705-2.335L108.23 170.45c-.5-.636-1.028-1.243-1.542-1.864l-.53.193m53.15 7.268v-.007l4.962-.015c3.727-.193 6.42-2.85 6.42-6.255-.008-3.477-2.635-5.984-6.5-6.07-3.2-.072-6.383.007-9.575-.057-1.17-.02-1.57.428-1.556 1.556l.007 9.4c-.014 1.036.357 1.507 1.45 1.464l4.8-.02m8.74 4.427l9.7 13.374c-2.4 0-4.54.08-6.67-.057-.492-.036-1.013-.75-1.378-1.25l-7.212-9.9a3.55 3.55 0 0 0-2.3-1.178c-1.813-.178-3.663.007-5.5-.078-1.278-.057-1.65.47-1.635 1.67l.036 9.047c.022 1.242-.257 1.835-1.664 1.792-5.04-.157-4.213.73-4.234-4.177l-.05-29.3c-.014-1.7.464-2.242 2.192-2.206 4.97.114 9.947-.078 14.9.107a19.77 19.77 0 0 1 6.176 1.307c4.134 1.57 6.148 4.877 6.37 9.2.243 4.6-1.607 8.154-5.8 10.3-.828.436-1.707.778-2.942 1.328m22.51-4.35l-.03-15.965c-.02-1.478.45-1.92 1.914-1.907q11.45.1 22.9-.007c1.528-.014 2.092.378 2.028 1.985-.143 3.556.357 3.15-3.12 3.163-5.205.02-10.4.064-15.6-.03-1.756-.036-2.3.614-2.206 2.27.1 1.885.085 3.785.007 5.677-.057 1.414.386 1.97 1.913 1.942 4.906-.093 9.818.022 14.723-.064 1.5-.03 1.956.485 1.935 1.928-.065 4.177.15 3.45-3.37 3.478-4.434.036-8.868.057-13.3-.022-1.364-.022-1.942.38-1.9 1.785a111.29 111.29 0 0 1 .007 6.562c-.043 1.385.55 1.864 1.906 1.857l17.208-.043c1.557-.02 2.22.328 2.142 2.056-.164 3.534.364 3.084-3.177 3.092-7.333.02-14.666-.036-22 .043-1.57.014-2.02-.457-2-2.013.093-5.262.036-10.525.036-15.787"/><path d="M253.45 179.862l-6.383-14.474-.52.03-6.3 14.445zm12.23 14.016c-2.057 0-3.77.086-5.462-.057-.464-.036-1.043-.686-1.278-1.192l-2.607-6.012a2.1 2.1 0 0 0-2.285-1.5q-7.273.053-14.56 0c-.968-.087-1.863.524-2.135 1.457l-2.72 6.162a2.46 2.46 0 0 1-1.692 1.1 44.35 44.35 0 0 1-4.727.05l.63-1.77 14.48-32.56a2.61 2.61 0 0 1 2.513-1.67c3-.386 4.405.764 5.6 3.57 4.34 10.3 9.018 20.435 13.56 30.64.214.47.378.957.693 1.785m-211.143-23.26l-.02-10.646c-.03-1.328.442-1.72 1.75-1.728 4.155-.007 4.155-.057 4.155 4.084l.014 15.26a20.14 20.14 0 0 0 .436 4.4c1.307 5.462 5.177 7.3 9.8 7.04 5.52-.32 8.718-3.713 8.768-8.96q.1-9.94-.008-19.878c-.014-1.428.35-1.963 1.87-1.942 4.263.043 4.27-.02 4.27 4.313L85.54 179.6c-.135 4.84-1.57 9.2-5.77 12.174-5.07 3.584-14.23 3.677-19.365.178-3.806-2.6-5.534-6.4-5.776-10.86-.186-3.477-.036-6.976-.036-10.468zM284.052 188.4l2.12.1 15.26-.028c1.492-.022 1.956.485 1.92 1.942-.093 4.1.3 3.442-3.356 3.463-6.748.03-13.488-.02-20.236.036-1.364.007-1.85-.35-1.842-1.792q.085-16.065.007-32.13c-.007-1.307.378-1.742 1.706-1.742 4.42-.02 4.42-.064 4.42 4.334v25.82z"/></svg>